<svg xmlns="http://www.w3.org/2000/svg" xmlns:xlink="http://www.w3.org/1999/xlink" width="2000" zoomAndPan="magnify" viewBox="0 0 1500 1499.999933" height="2000" preserveAspectRatio="xMidYMid meet" version="1.0"><defs><clipPath id="588b1ce51a"><path d="M 89.292969 634 L 1077 634 L 1077 1342 L 89.292969 1342 Z M 89.292969 634 " clip-rule="nonzero"/></clipPath><clipPath id="d497373ede"><path d="M 991 737 L 1410.792969 737 L 1410.792969 1239 L 991 1239 Z M 991 737 " clip-rule="nonzero"/></clipPath><clipPath id="0dae330c86"><path d="M 89.292969 207 L 602 207 L 602 720 L 89.292969 720 Z M 89.292969 207 " clip-rule="nonzero"/></clipPath><clipPath id="650a5ff4b6"><path d="M 478 623.117188 L 506 623.117188 L 506 651 L 478 651 Z M 478 623.117188 " clip-rule="nonzero"/></clipPath><clipPath id="8fbfa3fbce"><path d="M 503 654 L 518.363281 654 L 518.363281 678 L 503 678 Z M 503 654 " clip-rule="nonzero"/></clipPath><clipPath id="68294af53a"><path d="M 452.363281 652 L 502 652 L 502 698.867188 L 452.363281 698.867188 Z M 452.363281 652 " clip-rule="nonzero"/></clipPath></defs><path fill="#ffffff" d="M 340.996094 1138.945312 C 340.996094 1140.339844 340.929688 1141.734375 340.792969 1143.125 C 340.65625 1144.515625 340.449219 1145.894531 340.179688 1147.265625 C 339.90625 1148.632812 339.566406 1149.988281 339.160156 1151.324219 C 338.753906 1152.660156 338.285156 1153.976562 337.75 1155.265625 C 337.214844 1156.554688 336.621094 1157.816406 335.960938 1159.050781 C 335.304688 1160.28125 334.585938 1161.476562 333.808594 1162.640625 C 333.035156 1163.800781 332.203125 1164.921875 331.316406 1166 C 330.429688 1167.082031 329.492188 1168.113281 328.503906 1169.101562 C 327.519531 1170.089844 326.484375 1171.027344 325.40625 1171.914062 C 324.324219 1172.796875 323.203125 1173.628906 322.042969 1174.40625 C 320.882812 1175.183594 319.683594 1175.898438 318.453125 1176.558594 C 317.222656 1177.214844 315.960938 1177.8125 314.667969 1178.347656 C 313.378906 1178.882812 312.066406 1179.351562 310.726562 1179.757812 C 309.390625 1180.164062 308.039062 1180.5 306.667969 1180.773438 C 305.296875 1181.046875 303.917969 1181.25 302.527344 1181.386719 C 301.136719 1181.523438 299.746094 1181.59375 298.347656 1181.59375 C 296.949219 1181.59375 295.558594 1181.523438 294.167969 1181.386719 C 292.777344 1181.25 291.398438 1181.046875 290.027344 1180.773438 C 288.65625 1180.5 287.304688 1180.164062 285.96875 1179.757812 C 284.628906 1179.351562 283.316406 1178.882812 282.027344 1178.347656 C 280.734375 1177.8125 279.476562 1177.214844 278.242188 1176.558594 C 277.011719 1175.898438 275.8125 1175.183594 274.652344 1174.40625 C 273.492188 1173.628906 272.371094 1172.796875 271.292969 1171.914062 C 270.210938 1171.027344 269.179688 1170.089844 268.191406 1169.101562 C 267.203125 1168.113281 266.265625 1167.082031 265.378906 1166 C 264.492188 1164.921875 263.664062 1163.800781 262.886719 1162.640625 C 262.109375 1161.476562 261.394531 1160.28125 260.734375 1159.050781 C 260.074219 1157.816406 259.480469 1156.554688 258.945312 1155.265625 C 258.410156 1153.976562 257.941406 1152.660156 257.535156 1151.324219 C 257.128906 1149.988281 256.789062 1148.632812 256.519531 1147.265625 C 256.246094 1145.894531 256.039062 1144.515625 255.902344 1143.125 C 255.765625 1141.734375 255.699219 1140.339844 255.699219 1138.945312 C 255.699219 1137.546875 255.765625 1136.152344 255.902344 1134.765625 C 256.039062 1133.375 256.246094 1131.992188 256.519531 1130.625 C 256.789062 1129.253906 257.128906 1127.898438 257.535156 1126.5625 C 257.941406 1125.226562 258.410156 1123.914062 258.945312 1122.621094 C 259.480469 1121.332031 260.074219 1120.070312 260.734375 1118.839844 C 261.394531 1117.605469 262.109375 1116.410156 262.886719 1115.25 C 263.664062 1114.085938 264.492188 1112.96875 265.378906 1111.886719 C 266.265625 1110.808594 267.203125 1109.773438 268.191406 1108.785156 C 269.179688 1107.796875 270.210938 1106.863281 271.292969 1105.976562 C 272.371094 1105.089844 273.492188 1104.257812 274.652344 1103.480469 C 275.816406 1102.707031 277.011719 1101.988281 278.242188 1101.332031 C 279.476562 1100.671875 280.734375 1100.074219 282.027344 1099.539062 C 283.316406 1099.007812 284.628906 1098.535156 285.96875 1098.132812 C 287.304688 1097.726562 288.65625 1097.386719 290.027344 1097.113281 C 291.398438 1096.839844 292.777344 1096.636719 294.167969 1096.5 C 295.558594 1096.363281 296.949219 1096.292969 298.347656 1096.292969 C 299.746094 1096.292969 301.136719 1096.363281 302.527344 1096.5 C 303.917969 1096.636719 305.296875 1096.839844 306.667969 1097.113281 C 308.039062 1097.386719 309.390625 1097.726562 310.726562 1098.132812 C 312.066406 1098.535156 313.378906 1099.007812 314.667969 1099.539062 C 315.960938 1100.074219 317.222656 1100.671875 318.453125 1101.332031 C 319.683594 1101.988281 320.882812 1102.707031 322.042969 1103.480469 C 323.203125 1104.257812 324.324219 1105.089844 325.40625 1105.976562 C 326.484375 1106.863281 327.519531 1107.796875 328.503906 1108.785156 C 329.492188 1109.773438 330.429688 1110.808594 331.316406 1111.886719 C 332.203125 1112.96875 333.035156 1114.085938 333.808594 1115.25 C 334.585938 1116.410156 335.304688 1117.605469 335.960938 1118.839844 C 336.621094 1120.070312 337.214844 1121.332031 337.75 1122.621094 C 338.285156 1123.914062 338.753906 1125.226562 339.160156 1126.5625 C 339.566406 1127.898438 339.90625 1129.253906 340.179688 1130.625 C 340.449219 1131.992188 340.65625 1133.375 340.792969 1134.761719 C 340.929688 1136.152344 340.996094 1137.546875 340.996094 1138.945312 Z M 340.996094 1138.945312 " fill-opacity="1" fill-rule="nonzero"/><path fill="#ffffff" d="M 483.800781 1138.945312 C 483.800781 1140.339844 483.730469 1141.734375 483.59375 1143.125 C 483.457031 1144.515625 483.253906 1145.894531 482.980469 1147.265625 C 482.707031 1148.632812 482.371094 1149.988281 481.964844 1151.324219 C 481.558594 1152.660156 481.089844 1153.976562 480.554688 1155.265625 C 480.019531 1156.554688 479.421875 1157.816406 478.765625 1159.050781 C 478.105469 1160.28125 477.386719 1161.476562 476.613281 1162.640625 C 475.835938 1163.800781 475.003906 1164.921875 474.121094 1166 C 473.234375 1167.082031 472.296875 1168.113281 471.308594 1169.101562 C 470.320312 1170.089844 469.289062 1171.027344 468.207031 1171.914062 C 467.128906 1172.796875 466.007812 1173.628906 464.84375 1174.40625 C 463.683594 1175.183594 462.488281 1175.898438 461.253906 1176.558594 C 460.023438 1177.214844 458.761719 1177.8125 457.472656 1178.347656 C 456.179688 1178.882812 454.867188 1179.351562 453.53125 1179.757812 C 452.195312 1180.164062 450.839844 1180.5 449.472656 1180.773438 C 448.101562 1181.046875 446.722656 1181.25 445.332031 1181.386719 C 443.941406 1181.523438 442.546875 1181.59375 441.152344 1181.59375 C 439.753906 1181.59375 438.359375 1181.523438 436.96875 1181.386719 C 435.582031 1181.25 434.199219 1181.046875 432.832031 1180.773438 C 431.460938 1180.5 430.105469 1180.164062 428.769531 1179.757812 C 427.433594 1179.351562 426.121094 1178.882812 424.828125 1178.347656 C 423.539062 1177.8125 422.277344 1177.214844 421.046875 1176.558594 C 419.8125 1175.898438 418.617188 1175.183594 417.457031 1174.40625 C 416.292969 1173.628906 415.175781 1172.796875 414.09375 1171.914062 C 413.015625 1171.027344 411.980469 1170.089844 410.992188 1169.101562 C 410.003906 1168.113281 409.070312 1167.082031 408.183594 1166 C 407.296875 1164.921875 406.464844 1163.800781 405.6875 1162.640625 C 404.914062 1161.476562 404.195312 1160.28125 403.539062 1159.050781 C 402.878906 1157.816406 402.28125 1156.554688 401.746094 1155.265625 C 401.214844 1153.976562 400.742188 1152.660156 400.335938 1151.324219 C 399.933594 1149.988281 399.59375 1148.632812 399.320312 1147.265625 C 399.046875 1145.894531 398.84375 1144.515625 398.707031 1143.125 C 398.570312 1141.734375 398.5 1140.339844 398.5 1138.945312 C 398.5 1137.546875 398.570312 1136.152344 398.707031 1134.765625 C 398.84375 1133.375 399.046875 1131.992188 399.320312 1130.625 C 399.59375 1129.253906 399.933594 1127.898438 400.335938 1126.5625 C 400.742188 1125.226562 401.214844 1123.914062 401.746094 1122.621094 C 402.28125 1121.332031 402.878906 1120.070312 403.539062 1118.839844 C 404.195312 1117.605469 404.914062 1116.410156 405.6875 1115.25 C 406.464844 1114.085938 407.296875 1112.96875 408.183594 1111.886719 C 409.070312 1110.808594 410.003906 1109.773438 410.992188 1108.785156 C 411.980469 1107.796875 413.015625 1106.863281 414.09375 1105.976562 C 415.175781 1105.089844 416.292969 1104.257812 417.457031 1103.480469 C 418.617188 1102.707031 419.8125 1101.988281 421.046875 1101.332031 C 422.277344 1100.671875 423.539062 1100.074219 424.828125 1099.539062 C 426.121094 1099.007812 427.433594 1098.535156 428.769531 1098.132812 C 430.105469 1097.726562 431.460938 1097.386719 432.832031 1097.113281 C 434.199219 1096.839844 435.582031 1096.636719 436.96875 1096.5 C 438.359375 1096.363281 439.753906 1096.292969 441.152344 1096.292969 C 442.546875 1096.292969 443.941406 1096.363281 445.332031 1096.5 C 446.722656 1096.636719 448.101562 1096.839844 449.472656 1097.113281 C 450.839844 1097.386719 452.195312 1097.726562 453.53125 1098.132812 C 454.867188 1098.535156 456.179688 1099.007812 457.472656 1099.539062 C 458.761719 1100.074219 460.023438 1100.671875 461.253906 1101.332031 C 462.488281 1101.988281 463.683594 1102.707031 464.84375 1103.480469 C 466.007812 1104.257812 467.128906 1105.089844 468.207031 1105.976562 C 469.289062 1106.863281 470.320312 1107.796875 471.308594 1108.785156 C 472.296875 1109.773438 473.234375 1110.808594 474.121094 1111.886719 C 475.003906 1112.96875 475.835938 1114.085938 476.613281 1115.25 C 477.386719 1116.410156 478.105469 1117.605469 478.765625 1118.839844 C 479.421875 1120.070312 480.019531 1121.332031 480.554688 1122.621094 C 481.089844 1123.914062 481.558594 1125.226562 481.964844 1126.5625 C 482.371094 1127.898438 482.707031 1129.253906 482.980469 1130.625 C 483.253906 1131.992188 483.457031 1133.375 483.59375 1134.761719 C 483.730469 1136.152344 483.800781 1137.546875 483.800781 1138.945312 Z M 483.800781 1138.945312 " fill-opacity="1" fill-rule="nonzero"/><g clip-path="url(#588b1ce51a)"><path fill="#ffffff" d="M 906.46875 1341.074219 L 259.800781 1341.074219 C 165.75 1341.074219 89.292969 1264.613281 89.292969 1170.566406 L 89.292969 804.945312 C 89.292969 710.898438 165.75 634.441406 259.800781 634.441406 L 906.46875 634.441406 C 1000.515625 634.441406 1076.976562 710.898438 1076.976562 804.945312 L 1076.976562 1170.566406 C 1076.976562 1264.613281 1000.515625 1341.074219 906.46875 1341.074219 Z M 259.800781 719.648438 C 212.777344 719.648438 174.5 757.921875 174.5 804.945312 L 174.5 1170.566406 C 174.5 1217.589844 212.777344 1255.867188 259.800781 1255.867188 L 906.46875 1255.867188 C 953.492188 1255.867188 991.765625 1217.589844 991.765625 1170.566406 L 991.765625 804.949219 C 991.765625 757.921875 953.492188 719.648438 906.46875 719.648438 Z M 259.800781 719.648438 " fill-opacity="1" fill-rule="nonzero"/></g><g clip-path="url(#d497373ede)"><path fill="#ffffff" d="M 1320.660156 1238.09375 C 1307.265625 1238.09375 1293.777344 1235.085938 1281.199219 1228.980469 L 1042.527344 1112.972656 C 1011.726562 1098.027344 991.765625 1066.128906 991.765625 1031.863281 L 991.765625 943.648438 C 991.765625 909.382812 1011.726562 877.488281 1042.527344 862.542969 L 1281.199219 746.53125 C 1309.359375 732.863281 1341.984375 734.59375 1368.414062 751.179688 C 1394.933594 767.765625 1410.789062 796.378906 1410.789062 827.640625 L 1410.789062 1147.875 C 1410.789062 1179.132812 1394.933594 1207.75 1368.414062 1224.335938 C 1353.742188 1233.539062 1337.246094 1238.1875 1320.660156 1238.1875 Z M 1320.660156 822.625 C 1319.65625 822.625 1318.929688 822.992188 1318.472656 823.171875 L 1079.800781 939.183594 C 1078.070312 940.003906 1077.066406 941.734375 1077.066406 943.648438 L 1077.066406 1031.863281 C 1077.066406 1033.777344 1078.160156 1035.417969 1079.800781 1036.328125 L 1318.472656 1152.339844 C 1319.203125 1152.613281 1320.933594 1153.523438 1323.210938 1152.066406 C 1325.492188 1150.609375 1325.492188 1148.605469 1325.492188 1147.875 L 1325.492188 827.640625 C 1325.492188 826.910156 1325.492188 824.90625 1323.210938 823.445312 C 1322.210938 822.808594 1321.390625 822.625 1320.570312 822.625 Z M 1320.660156 822.625 " fill-opacity="1" fill-rule="nonzero"/></g><g clip-path="url(#0dae330c86)"><path fill="#ffffff" d="M 345.1875 719.648438 C 204.117188 719.648438 89.292969 604.824219 89.292969 463.75 C 89.292969 322.679688 204.117188 207.761719 345.1875 207.761719 C 486.261719 207.761719 601.085938 322.589844 601.085938 463.660156 C 601.085938 604.730469 486.261719 719.558594 345.1875 719.558594 Z M 345.1875 293.0625 C 251.050781 293.0625 174.5 369.613281 174.5 463.75 C 174.5 557.890625 251.050781 634.441406 345.1875 634.441406 C 439.328125 634.441406 515.878906 557.890625 515.878906 463.75 C 515.878906 369.613281 439.328125 293.0625 345.1875 293.0625 Z M 345.1875 293.0625 " fill-opacity="1" fill-rule="nonzero"/></g><path fill="#ffffff" d="M 345.1875 570.464844 C 286.320312 570.464844 238.472656 522.621094 238.472656 463.75 C 238.472656 404.878906 286.320312 357.035156 345.1875 357.035156 C 404.058594 357.035156 451.90625 404.878906 451.90625 463.75 C 451.90625 522.621094 404.058594 570.464844 345.1875 570.464844 Z M 345.1875 442.242188 C 333.34375 442.242188 323.683594 451.902344 323.683594 463.75 C 323.683594 475.597656 333.34375 485.257812 345.1875 485.257812 C 357.035156 485.257812 366.695312 475.597656 366.695312 463.75 C 366.695312 451.902344 357.035156 442.242188 345.1875 442.242188 Z M 345.1875 442.242188 " fill-opacity="1" fill-rule="nonzero"/><path fill="#ffffff" d="M 796.472656 719.648438 C 641.730469 719.648438 515.878906 593.796875 515.878906 439.054688 C 515.878906 284.3125 641.824219 158.550781 796.472656 158.550781 C 951.121094 158.550781 1076.976562 284.40625 1076.976562 439.144531 C 1076.976562 593.886719 951.121094 719.738281 796.472656 719.738281 Z M 796.472656 243.757812 C 688.753906 243.757812 601.175781 331.335938 601.175781 439.054688 C 601.175781 546.773438 688.753906 634.347656 796.472656 634.347656 C 904.191406 634.347656 991.765625 546.773438 991.765625 439.054688 C 991.765625 331.335938 904.191406 243.757812 796.472656 243.757812 Z M 796.472656 243.757812 " fill-opacity="1" fill-rule="nonzero"/><path fill="#ffffff" d="M 796.472656 570.464844 C 724.023438 570.464844 665.152344 511.503906 665.152344 439.144531 C 665.152344 366.789062 724.113281 307.824219 796.472656 307.824219 C 868.832031 307.824219 927.792969 366.789062 927.792969 439.144531 C 927.792969 511.503906 868.832031 570.464844 796.472656 570.464844 Z M 796.472656 393.03125 C 771.046875 393.03125 750.359375 413.71875 750.359375 439.144531 C 750.359375 464.570312 771.046875 485.257812 796.472656 485.257812 C 821.898438 485.257812 842.585938 464.570312 842.585938 439.144531 C 842.585938 413.71875 821.898438 393.03125 796.472656 393.03125 Z M 796.472656 393.03125 " fill-opacity="1" fill-rule="nonzero"/><path fill="#ffffff" d="M 465.359375 650.238281 C 471.195312 650.238281 475.972656 645.460938 475.972656 639.625 C 475.972656 633.789062 471.195312 629.011719 465.359375 629.011719 C 459.523438 629.011719 454.746094 633.789062 454.746094 639.625 C 454.746094 645.460938 459.523438 650.238281 465.359375 650.238281 Z M 465.359375 631.371094 C 469.898438 631.371094 473.613281 635.085938 473.613281 639.625 C 473.613281 644.164062 469.898438 647.878906 465.359375 647.878906 C 460.820312 647.878906 457.105469 644.164062 457.105469 639.625 C 457.105469 635.085938 460.820312 631.371094 465.359375 631.371094 Z M 465.359375 631.371094 " fill-opacity="1" fill-rule="nonzero"/><path fill="#ffffff" d="M 465.359375 644.34375 C 467.953125 644.34375 470.078125 642.21875 470.078125 639.625 C 470.078125 637.03125 467.953125 634.910156 465.359375 634.910156 C 462.765625 634.910156 460.644531 637.03125 460.644531 639.625 C 460.644531 642.21875 462.765625 644.34375 465.359375 644.34375 Z M 465.359375 637.265625 C 466.65625 637.265625 467.71875 638.328125 467.71875 639.625 C 467.71875 640.921875 466.65625 641.984375 465.359375 641.984375 C 464.0625 641.984375 463 640.921875 463 639.625 C 463 638.328125 464.0625 637.265625 465.359375 637.265625 Z M 465.359375 637.265625 " fill-opacity="1" fill-rule="nonzero"/><g clip-path="url(#650a5ff4b6)"><path fill="#ffffff" d="M 491.890625 623.117188 C 484.402344 623.117188 478.332031 629.1875 478.332031 636.675781 C 478.332031 644.164062 484.402344 650.238281 491.890625 650.238281 C 499.378906 650.238281 505.453125 644.164062 505.453125 636.675781 C 505.453125 629.1875 499.378906 623.117188 491.890625 623.117188 Z M 491.890625 647.878906 C 485.699219 647.878906 480.6875 642.867188 480.6875 636.675781 C 480.6875 630.488281 485.699219 625.476562 491.890625 625.476562 C 498.082031 625.476562 503.09375 630.488281 503.09375 636.675781 C 503.09375 642.867188 498.082031 647.878906 491.890625 647.878906 Z M 491.890625 647.878906 " fill-opacity="1" fill-rule="nonzero"/></g><path fill="#ffffff" d="M 491.890625 630.78125 C 488.648438 630.78125 485.996094 633.433594 485.996094 636.675781 C 485.996094 639.917969 488.648438 642.574219 491.890625 642.574219 C 495.132812 642.574219 497.789062 639.917969 497.789062 636.675781 C 497.789062 633.433594 495.132812 630.78125 491.890625 630.78125 Z M 491.890625 640.214844 C 489.945312 640.214844 488.355469 638.621094 488.355469 636.675781 C 488.355469 634.730469 489.945312 633.140625 491.890625 633.140625 C 493.835938 633.140625 495.429688 634.730469 495.429688 636.675781 C 495.429688 638.621094 493.835938 640.214844 491.890625 640.214844 Z M 491.890625 640.214844 " fill-opacity="1" fill-rule="nonzero"/><g clip-path="url(#8fbfa3fbce)"><path fill="#ffffff" d="M 517.242188 654.660156 C 516.535156 654.246094 515.652344 654.246094 514.886719 654.660156 C 514.886719 654.660156 514.828125 654.660156 514.828125 654.71875 C 514.828125 654.71875 507.871094 659.082031 507.75 659.082031 L 503.625 659.082031 L 503.625 661.441406 L 506.574219 661.441406 L 506.574219 670.875 L 503.625 670.875 L 503.625 673.230469 L 507.75 673.230469 C 507.808594 673.230469 514.828125 677.652344 514.828125 677.652344 C 515.535156 678.066406 516.417969 678.066406 517.183594 677.652344 C 517.953125 677.242188 518.363281 676.476562 518.363281 675.589844 L 518.363281 656.722656 C 518.421875 655.898438 518.011719 655.132812 517.242188 654.660156 Z M 508.988281 671.050781 L 508.988281 661.261719 L 516.066406 656.722656 L 516.066406 675.589844 Z M 508.988281 671.050781 " fill-opacity="1" fill-rule="nonzero"/></g><g clip-path="url(#68294af53a)"><path fill="#ffffff" d="M 497.789062 652.597656 L 458.875 652.597656 C 456.929688 652.597656 455.335938 654.1875 455.335938 656.132812 L 455.335938 662.03125 L 453.566406 662.03125 C 452.917969 662.03125 452.386719 662.558594 452.386719 663.207031 C 452.386719 663.859375 452.917969 664.386719 453.566406 664.386719 L 455.335938 664.386719 L 455.335938 676.179688 C 455.335938 678.125 456.929688 679.71875 458.875 679.71875 L 467.71875 679.71875 L 467.71875 680.898438 C 467.71875 682.84375 469.308594 684.433594 471.253906 684.433594 L 477.152344 684.433594 L 477.152344 686.144531 L 467.1875 696.640625 C 466.714844 697.109375 466.773438 697.878906 467.246094 698.289062 C 467.480469 698.527344 467.777344 698.644531 468.070312 698.644531 C 468.367188 698.644531 468.71875 698.527344 468.898438 698.289062 L 477.152344 689.5625 L 477.152344 697.40625 C 477.152344 698.054688 477.683594 698.585938 478.332031 698.585938 C 478.980469 698.585938 479.511719 698.054688 479.511719 697.40625 L 479.511719 689.5625 L 487.824219 698.230469 C 488.058594 698.46875 488.355469 698.585938 488.648438 698.585938 C 488.945312 698.585938 489.238281 698.46875 489.472656 698.230469 C 489.945312 697.757812 489.945312 697.050781 489.53125 696.582031 L 479.511719 686.144531 L 479.511719 684.433594 L 485.40625 684.433594 C 487.351562 684.433594 488.945312 682.84375 488.945312 680.898438 L 488.945312 679.71875 L 497.789062 679.71875 C 499.734375 679.71875 501.324219 678.125 501.324219 676.179688 L 501.324219 656.132812 C 501.324219 654.1875 499.734375 652.597656 497.789062 652.597656 Z M 486.585938 680.898438 C 486.585938 681.546875 486.054688 682.074219 485.40625 682.074219 L 471.253906 682.074219 C 470.605469 682.074219 470.078125 681.546875 470.078125 680.898438 L 470.078125 679.71875 L 486.585938 679.71875 Z M 498.964844 676.179688 C 498.964844 676.828125 498.4375 677.359375 497.789062 677.359375 L 458.875 677.359375 C 458.226562 677.359375 457.695312 676.828125 457.695312 676.179688 L 457.695312 656.132812 C 457.695312 655.484375 458.226562 654.953125 458.875 654.953125 L 497.789062 654.953125 C 498.4375 654.953125 498.964844 655.484375 498.964844 656.132812 Z M 498.964844 676.179688 " fill-opacity="1" fill-rule="nonzero"/></g><path fill="#ffffff" d="M 474.792969 649.058594 C 474.792969 649.707031 475.324219 650.238281 475.972656 650.238281 L 480.6875 650.238281 C 481.335938 650.238281 481.867188 649.707031 481.867188 649.058594 C 481.867188 648.410156 481.335938 647.878906 480.6875 647.878906 L 475.972656 647.878906 C 475.324219 647.878906 474.792969 648.410156 474.792969 649.058594 Z M 474.792969 649.058594 " fill-opacity="1" fill-rule="nonzero"/><path fill="#ffffff" d="M 463.589844 672.640625 C 463.589844 672.800781 463.5625 672.949219 463.5 673.09375 C 463.441406 673.238281 463.355469 673.367188 463.246094 673.476562 C 463.136719 673.585938 463.007812 673.671875 462.863281 673.730469 C 462.71875 673.792969 462.566406 673.820312 462.410156 673.820312 C 462.253906 673.820312 462.105469 673.792969 461.960938 673.730469 C 461.816406 673.671875 461.6875 673.585938 461.578125 673.476562 C 461.46875 673.367188 461.382812 673.238281 461.320312 673.09375 C 461.261719 672.949219 461.230469 672.800781 461.230469 672.640625 C 461.230469 672.484375 461.261719 672.335938 461.320312 672.191406 C 461.382812 672.046875 461.46875 671.917969 461.578125 671.808594 C 461.6875 671.699219 461.816406 671.613281 461.960938 671.554688 C 462.105469 671.492188 462.253906 671.464844 462.410156 671.464844 C 462.566406 671.464844 462.71875 671.492188 462.863281 671.554688 C 463.007812 671.613281 463.136719 671.699219 463.246094 671.808594 C 463.355469 671.917969 463.441406 672.046875 463.5 672.191406 C 463.5625 672.335938 463.589844 672.484375 463.589844 672.640625 Z M 463.589844 672.640625 " fill-opacity="1" fill-rule="nonzero"/><path fill="#ffffff" d="M 468.308594 672.640625 C 468.308594 672.800781 468.277344 672.949219 468.21875 673.09375 C 468.15625 673.238281 468.074219 673.367188 467.960938 673.476562 C 467.851562 673.585938 467.722656 673.671875 467.578125 673.730469 C 467.433594 673.792969 467.285156 673.820312 467.128906 673.820312 C 466.972656 673.820312 466.820312 673.792969 466.675781 673.730469 C 466.53125 673.671875 466.40625 673.585938 466.292969 673.476562 C 466.183594 673.367188 466.097656 673.238281 466.039062 673.09375 C 465.980469 672.949219 465.949219 672.800781 465.949219 672.640625 C 465.949219 672.484375 465.980469 672.335938 466.039062 672.191406 C 466.097656 672.046875 466.183594 671.917969 466.292969 671.808594 C 466.40625 671.699219 466.53125 671.613281 466.675781 671.554688 C 466.820312 671.492188 466.972656 671.464844 467.128906 671.464844 C 467.285156 671.464844 467.433594 671.492188 467.578125 671.554688 C 467.722656 671.613281 467.851562 671.699219 467.960938 671.808594 C 468.074219 671.917969 468.15625 672.046875 468.21875 672.191406 C 468.277344 672.335938 468.308594 672.484375 468.308594 672.640625 Z M 468.308594 672.640625 " fill-opacity="1" fill-rule="nonzero"/><path fill="#ffffff" d="M 473.023438 672.640625 C 473.023438 672.800781 472.996094 672.949219 472.933594 673.09375 C 472.875 673.238281 472.789062 673.367188 472.679688 673.476562 C 472.570312 673.585938 472.441406 673.671875 472.296875 673.730469 C 472.152344 673.792969 472 673.820312 471.84375 673.820312 C 471.6875 673.820312 471.539062 673.792969 471.394531 673.730469 C 471.25 673.671875 471.121094 673.585938 471.011719 673.476562 C 470.902344 673.367188 470.816406 673.238281 470.753906 673.09375 C 470.695312 672.949219 470.664062 672.800781 470.664062 672.640625 C 470.664062 672.484375 470.695312 672.335938 470.753906 672.191406 C 470.816406 672.046875 470.902344 671.917969 471.011719 671.808594 C 471.121094 671.699219 471.25 671.613281 471.394531 671.554688 C 471.539062 671.492188 471.6875 671.464844 471.84375 671.464844 C 472 671.464844 472.152344 671.492188 472.296875 671.554688 C 472.441406 671.613281 472.570312 671.699219 472.679688 671.808594 C 472.789062 671.917969 472.875 672.046875 472.933594 672.191406 C 472.996094 672.335938 473.023438 672.484375 473.023438 672.640625 Z M 473.023438 672.640625 " fill-opacity="1" fill-rule="nonzero"/></svg>