<?xml version="1.0" encoding="UTF-8"?>
<svg version="1.1" xmlns="http://www.w3.org/2000/svg" width="2000" height="2000">
<path d="M0 0 C0.92165955 0.08721313 1.84331909 0.17442627 2.79290771 0.26428223 C30.00694785 2.85023437 57.05125662 6.41814911 84 11 C84.74284241 11.12528076 85.48568481 11.25056152 86.2510376 11.37963867 C154.71113256 22.96030843 222.9172935 42.19951236 287 69 C287.98208435 69.40931763 287.98208435 69.40931763 288.98400879 69.8269043 C315.63355415 80.93932364 342.21082336 92.42398688 367.60546875 106.20703125 C370.85903956 108.04382413 370.85903956 108.04382413 374 109 C374 109.66 374 110.32 374 111 C374.79019531 111.22429687 375.58039063 111.44859375 376.39453125 111.6796875 C381.08922749 113.39887204 385.31666576 115.71210744 389.6875 118.125 C390.64156738 118.64924561 391.59563477 119.17349121 392.57861328 119.71362305 C423.0337632 136.58278694 452.35694006 155.2373805 481 175 C482.26263672 175.86818359 482.26263672 175.86818359 483.55078125 176.75390625 C494.86162132 184.54842298 505.78454632 192.82783144 516.66748047 201.20654297 C518.66045573 202.73892692 520.65820448 204.26453566 522.66015625 205.78515625 C534.42514513 214.75103997 545.8811792 224.08931505 557.06665039 233.76782227 C560.44822966 236.68996619 563.87987578 239.52577652 567.375 242.3125 C572.8897843 246.7815178 578.02822709 251.61882133 583.16748047 256.5090332 C586.43911073 259.61951362 589.73945471 262.66946703 593.15234375 265.625 C596.37567394 268.42109449 599.39584434 271.3206606 602.375 274.375 C605.38439823 277.60234802 605.38439823 277.60234802 609 280 C609 280.66 609 281.32 609 282 C609.54140625 282.2165625 610.0828125 282.433125 610.640625 282.65625 C613.81645344 284.46499997 616.20728081 286.91723799 618.75 289.5 C619.25660156 289.99886719 619.76320313 290.49773437 620.28515625 291.01171875 C624 294.74658861 624 294.74658861 624 297 C624.66 297 625.32 297 626 297 C627.33984375 298.36328125 627.33984375 298.36328125 628.9375 300.3125 C631.96879287 303.88803335 635.162397 307.20830626 638.5 310.5 C642.22663117 314.1807862 645.79860696 317.93300363 649.19921875 321.91796875 C651.37324202 324.43153578 653.62390488 326.86776229 655.875 329.3125 C660.03946934 333.87448687 663.97218109 338.5778243 667.8515625 343.3828125 C669.84596296 345.81235488 671.89706981 348.16433445 674 350.5 C678.04938693 355.01081019 681.88071716 359.67797266 685.69140625 364.39111328 C687.10750544 366.13217553 688.53729437 367.86138854 689.96875 369.58984375 C698.37641109 379.77926084 706.25147951 390.3036252 714 401 C715.11715025 402.53648542 716.23433718 404.07294417 717.3515625 405.609375 C720.06493768 409.34731936 722.76446989 413.09497214 725.45605469 416.84863281 C726.45464385 418.24008881 727.45516648 419.63016016 728.45800781 421.01855469 C748.75078461 449.12801453 767.11525863 478.73499379 784 509 C784.91217285 510.62929443 784.91217285 510.62929443 785.84277344 512.29150391 C824.78069508 581.89520533 855.40195342 655.36644664 879 742 C879.20131531 742.74963013 879.40263062 743.49926025 879.61004639 744.27160645 C892.60189923 792.74279629 901.37624412 842.25532228 906.8125 892.125 C906.96168884 893.48889359 906.96168884 893.48889359 907.1138916 894.88034058 C909.80838724 919.8299951 911.32138719 944.63234545 911.3359375 969.73046875 C911.34075583 971.73877907 911.34558042 973.74708941 911.35085833 975.75539857 C911.36695015 982.05707867 911.37204616 988.35870205 911.37060547 994.66040039 C911.36954693 1000.30765258 911.38352422 1005.95462546 911.41162109 1011.60180664 C911.84702704 1101.17516851 900.48709301 1189.66812498 801 1471 C800.34 1471 799.68 1471 799 1471 C799 1472.32 799 1473.64 799 1475 C798.34 1475 797.68 1475 797 1475 C796.77570313 1475.79019531 796.55140625 1476.58039063 796.3203125 1477.39453125 C794.60112096 1482.08924662 792.28779593 1486.31659557 789.875 1490.6875 C789.09080688 1492.11533813 789.09080688 1492.11533813 788.29077148 1493.57202148 C781.4758222 1505.8797941 774.26495638 1517.95443787 767 1530 C766.45263184 1530.91072266 765.90526367 1531.82144531 765.34130859 1532.75976562 C751.87845804 1555.09170946 737.32524368 1576.90211091 722 1598 C721.46246094 1598.74185547 720.92492188 1599.48371094 720.37109375 1600.24804688 C705.62242327 1620.55686534 690.16705627 1640.32801433 673.87548828 1659.42358398 C671.0864539 1662.69574618 668.37262256 1666.01736055 665.6875 1669.375 C661.402493 1674.64826087 656.80695987 1679.59381939 652.13549805 1684.52294922 C648.58416184 1688.273022 645.14779457 1692.09929502 641.75976562 1695.99731445 C632.75396932 1706.24628047 623.1288308 1715.96664663 613.5 1725.625 C612.67604736 1726.45354492 611.85209473 1727.28208984 611.00317383 1728.13574219 C606.7185007 1732.40956145 602.36682577 1736.53333738 597.7578125 1740.45654297 C595.92365439 1742.06703569 594.20852172 1743.75748166 592.5 1745.5 C589.53264677 1748.51413582 586.42654708 1751.29917333 583.22265625 1754.05859375 C580.67023117 1756.28804061 578.18112486 1758.58001382 575.6875 1760.875 C571.14959482 1765.01803222 566.46855965 1768.92380414 561.6875 1772.78125 C559.0330038 1774.97275268 556.47999115 1777.24247683 553.9375 1779.5625 C549.12521311 1783.93661948 544.11916505 1787.99242507 539 1792 C537.46085937 1793.21429687 537.46085937 1793.21429687 535.890625 1794.453125 C532.93353449 1796.7854109 529.9697884 1799.10908372 527.00390625 1801.43017578 C525.61483248 1802.51835126 524.22688808 1803.60796934 522.83984375 1804.69873047 C513.63587004 1811.93585502 504.37688194 1819.03220963 494.78369141 1825.74609375 C492.9146574 1827.05999447 491.05625101 1828.38794717 489.19921875 1829.71875 C468.24284551 1844.69670092 446.64918891 1858.77080643 424.625 1872.125 C424.02421631 1872.49165771 423.42343262 1872.85831543 422.80444336 1873.23608398 C420.29602792 1874.74113325 417.875872 1876.04863097 415.1484375 1877.1171875 C412.82841622 1877.79539056 412.82841622 1877.79539056 412 1880 C410.22293916 1881.10103609 408.40320915 1882.13403304 406.5625 1883.125 C405.57378906 1883.66382813 404.58507813 1884.20265625 403.56640625 1884.7578125 C401 1886 401 1886 399 1886 C399 1886.66 399 1887.32 399 1888 C398.20078125 1888.38929687 397.4015625 1888.77859375 396.578125 1889.1796875 C393.9461969 1890.49565155 391.36752441 1891.88848596 388.796875 1893.3203125 C362.56854135 1907.92517728 335.60689345 1921.2067073 308 1933 C307.29182129 1933.30294983 306.58364258 1933.60589966 305.85400391 1933.91802979 C295.36043567 1938.39790992 284.81183438 1942.72526783 274.20458984 1946.92871094 C270.69044437 1948.32158469 267.18720009 1949.73812396 263.68994141 1951.17285156 C240.00185749 1960.84953523 212.80897359 1971.85883524 187.35546875 1961.59765625 C174.54583233 1955.82141294 166.02785678 1946.07242762 161 1933 C158.16742316 1923.6929618 157.83847885 1914.64323794 157.91601562 1905.00146484 C157.9230891 1903.29282792 157.9230891 1903.29282792 157.93030548 1901.54967308 C157.94691932 1898.03303833 157.97225493 1894.51656301 158 1891 C158.00722076 1889.96214607 158.01444153 1888.92429214 158.0218811 1887.8549881 C158.06529491 1881.7103357 158.12234549 1875.56588224 158.18514442 1869.42140007 C158.2458957 1863.41988479 158.30077868 1857.41831452 158.35620117 1851.41674805 C158.36801517 1850.14219159 158.37982916 1848.86763514 158.39200115 1847.55445576 C158.86873056 1795.72259625 159.13476247 1743.89115383 159.17937243 1692.05709791 C159.18469254 1686.35594431 159.19521552 1680.65481561 159.20800781 1674.95367432 C159.22352651 1667.95435861 159.2312946 1660.95508221 159.22964984 1653.95574874 C159.22891984 1650.37588091 159.23102394 1646.79608728 159.24188805 1643.21623421 C159.30527843 1620.96329341 158.60577406 1598.83696369 154.75 1576.875 C154.42684814 1574.99772217 154.42684814 1574.99772217 154.09716797 1573.08251953 C152.03905535 1561.53561034 149.38457402 1550.22872323 146 1539 C145.75056641 1538.16919922 145.50113281 1537.33839844 145.24414062 1536.48242188 C137.13290308 1510.14696425 124.35300805 1485.55536902 106 1465 C104.72900918 1463.50013344 103.45815229 1462.00015336 102.1875 1460.5 C100.13989409 1458.15635468 98.05296236 1456.1333138 95.625 1454.1875 C93 1452 93 1452 92 1449 C92.54122498 1448.93006836 93.08244995 1448.86013672 93.64007568 1448.78808594 C183.41186313 1437.15303751 273.48953204 1419.7761017 421.58203125 1320.29296875 C423 1319 423 1319 425 1319 C425 1318.34 425 1317.68 425 1317 C425.680625 1316.46375 426.36125 1315.9275 427.0625 1315.375 C430.10863068 1312.91217094 432.45108528 1310.30038594 434.984375 1307.33203125 C437.24913393 1304.71175783 439.58959417 1302.17096537 441.9375 1299.625 C460.02035091 1279.72300342 475.06447549 1256.92705772 487.77050781 1233.27832031 C488.98485962 1231.028056 490.22131974 1228.7911113 491.4609375 1226.5546875 C511.7203817 1189.57710033 523.89974204 1148.71630514 533.33032227 1107.81762695 C534.00613738 1104.97417735 534.74394908 1102.15145206 535.484375 1099.32421875 C537.38895961 1091.72670882 538.68721591 1084.03858842 539.9375 1076.3125 C540.0662854 1075.51821594 540.1950708 1074.72393188 540.32775879 1073.90557861 C552.1707843 1000.02635332 560.32264165 907.76010713 532.86938477 836.375 C532.09252073 834.2527497 531.5294217 832.19312737 531 830 C518.14967945 788.56584392 498.74600897 749.92226665 473 715 C472.35683838 714.12722412 472.35683838 714.12722412 471.70068359 713.23681641 C466.01177499 705.57243817 459.92637985 698.29224149 453.6640625 691.09375 C453.21321289 690.56523438 452.76236328 690.03671875 452.29785156 689.4921875 C451.10035444 688.11538117 449.84527917 686.78922476 448.5859375 685.46875 C447 683 447 683 447.046875 680.34375 C448.36986893 675.70242703 449.7875735 671.09911372 451.25 666.5 C459.74891296 639.00326058 465.07751072 610.19383726 465.203125 581.3515625 C465.21018463 580.2690773 465.21724426 579.1865921 465.22451782 578.07130432 C465.46127205 544.42075959 465.46127205 544.42075959 462 511 C461.80132324 509.74670898 461.60264648 508.49341797 461.39794922 507.20214844 C458.32337157 488.1879003 454.08888754 469.47811015 448.59692383 451.00854492 C448.18451132 449.62084851 447.7750279 448.23227943 447.36791992 446.84301758 C446.04904479 442.34960065 444.6820139 437.8753879 443.25057983 433.41650391 C442.79576884 431.9844756 442.35299821 430.54856141 441.92300415 429.10888672 C439.92933983 421.47386177 439.92933983 421.47386177 435.07421875 415.6887207 C432.62691683 415.05563594 430.52716248 414.966732 428 415 C427.08001221 414.9479541 426.16002441 414.8959082 425.2121582 414.84228516 C422.09356146 414.69205929 418.99706832 414.67113206 415.875 414.6875 C414.73482422 414.69313965 413.59464844 414.6987793 412.41992188 414.70458984 C371.99134588 415.27076929 331.68849012 428.72145556 295 445 C294.05866211 445.41572266 293.11732422 445.83144531 292.14746094 446.25976562 C254.9735002 462.77337109 219.82391692 482.61629211 185.5625 504.5 C184.55074707 505.14622314 183.53899414 505.79244629 182.49658203 506.45825195 C181.04614502 507.39157349 181.04614502 507.39157349 179.56640625 508.34375 C178.63199707 508.94316406 177.69758789 509.54257812 176.73486328 510.16015625 C174.89384971 511.39867422 173.0942483 512.70079816 171.33935547 514.05859375 C170.4938916 514.70957031 169.64842773 515.36054687 168.77734375 516.03125 C168.04636475 516.62486328 167.31538574 517.21847656 166.56225586 517.83007812 C161.0073259 520.36645015 154.03447446 517.64498878 148.35546875 516.1796875 C146.87770032 515.80861753 145.39983121 515.43794832 143.921875 515.06762695 C143.15166016 514.87319 142.38144531 514.67875305 141.58789062 514.47842407 C89.96719114 501.50171421 37.31049811 493.32677397 -15.75 489.25 C-16.90166656 489.16125107 -16.90166656 489.16125107 -18.07659912 489.07070923 C-23.3818334 488.6689713 -28.68903479 488.31675641 -34 488 C-35.20775589 487.9274147 -35.20775589 487.9274147 -36.43991089 487.85336304 C-53.14069134 486.88648535 -69.83805792 486.79800559 -86.5625 486.8125 C-87.60102867 486.81290031 -87.60102867 486.81290031 -88.66053772 486.81330872 C-111.16355214 486.82416995 -133.56124843 487.19249733 -156 489 C-157.66764164 489.1302287 -159.33528493 489.26043623 -161.00292969 489.390625 C-213.30783021 493.53748502 -264.54423076 502.28405864 -315.65234375 514.01953125 C-316.3921196 514.18914871 -317.13189545 514.35876617 -317.89408875 514.53352356 C-322.87253236 515.6925568 -327.77229731 517.03015461 -332.64282227 518.58862305 C-337.99372174 519.52246723 -341.76079333 517.86453703 -346.09765625 514.859375 C-347.05285156 514.20759277 -348.00804687 513.55581055 -348.9921875 512.88427734 C-350.00539063 512.17996582 -351.01859375 511.4756543 -352.0625 510.75 C-354.22867969 509.27601318 -356.39668063 507.80469968 -358.56640625 506.3359375 C-359.65066895 505.60084961 -360.73493164 504.86576172 -361.85205078 504.10839844 C-369.74445615 498.8223109 -377.8616693 493.89579594 -386 489 C-386.90057129 488.45698242 -387.80114258 487.91396484 -388.72900391 487.35449219 C-442.30672604 455.19848398 -499.130372 428.1756873 -561 417 C-561.7955127 416.85304688 -562.59102539 416.70609375 -563.41064453 416.5546875 C-579.49634533 413.69026718 -596.82384049 414.03177225 -613 416 C-613.1131958 416.83289551 -613.2263916 417.66579102 -613.34301758 418.52392578 C-614.06819874 422.36083748 -615.22466229 425.94294101 -616.51171875 429.6171875 C-617.02517814 431.1138354 -617.53809636 432.61066904 -618.05053711 434.10766602 C-618.31816864 434.88554474 -618.58580017 435.66342346 -618.86154175 436.46487427 C-629.88603642 468.63407679 -636.76285963 501.12196458 -640 535 C-640.07202637 535.71526855 -640.14405273 536.43053711 -640.21826172 537.16748047 C-644.61170344 582.30222794 -639.67153439 630.86194122 -624.09643555 673.4543457 C-623.80808838 674.25960693 -623.51974121 675.06486816 -623.22265625 675.89453125 C-622.96234619 676.59425049 -622.70203613 677.29396973 -622.43383789 678.01489258 C-621.91151391 680.40488487 -622.14742596 681.71796572 -623 684 C-624.69979276 686.14232501 -626.42112763 688.16175591 -628.25 690.1875 C-665.99218975 733.29804489 -693.33112926 785.6312753 -709.03515625 840.625 C-709.53488161 842.37302718 -710.04395691 844.12120078 -710.66381836 845.83032227 C-713.49803036 853.65073426 -714.93562006 861.79152458 -716.5 869.9375 C-716.65374084 870.73046478 -716.80748169 871.52342957 -716.96588135 872.34042358 C-719.69510724 886.49301283 -721.79819898 900.62763225 -723 915 C-723.0935376 916.03527832 -723.1870752 917.07055664 -723.28344727 918.13720703 C-724.29440944 930.82312277 -724.19909638 943.53188738 -724.1875 956.25 C-724.18689575 957.47097382 -724.1862915 958.69194763 -724.18566895 959.94992065 C-724.15874526 980.0338427 -723.72966663 999.98865411 -722 1020 C-721.90525391 1021.10942963 -721.90525391 1021.10942963 -721.80859375 1022.24127197 C-720.19952911 1040.88305492 -717.96664261 1059.39996108 -715 1077.875 C-714.88047974 1078.62747009 -714.76095947 1079.37994019 -714.63781738 1080.1552124 C-713.17495157 1089.26912251 -711.32390811 1098.19455798 -709 1107.12744141 C-708.04125983 1110.8402189 -707.15084687 1114.5623389 -706.28125 1118.296875 C-693.86378766 1170.70556182 -674.21080037 1222.77935882 -643 1267 C-642.25878906 1268.07507812 -641.51757812 1269.15015625 -640.75390625 1270.2578125 C-631.94475973 1282.9266643 -622.21936081 1294.85915252 -611.68359375 1306.12890625 C-609.84087524 1308.10037365 -608.02145092 1310.07950025 -606.22265625 1312.08984375 C-600.48788867 1318.48334142 -594.47229529 1324.34711389 -588 1330 C-587.2575 1330.69222656 -586.515 1331.38445312 -585.75 1332.09765625 C-577.9712763 1339.33765077 -569.51789617 1345.66638418 -561 1352 C-560.39639648 1352.45020508 -559.79279297 1352.90041016 -559.17089844 1353.36425781 C-481.30316892 1411.13135127 -385.07302309 1433.64205416 -269 1449 C-271.28106712 1453.00497704 -273.39909233 1455.13564163 -277 1458 C-279.47839189 1460.54811647 -281.73903998 1463.25864106 -284 1466 C-284.75410156 1466.90492187 -285.50820313 1467.80984375 -286.28515625 1468.7421875 C-306.64648243 1494.10510727 -318.97883154 1525.01859256 -326.3125 1556.4375 C-326.57554932 1557.5296582 -326.83859863 1558.62181641 -327.10961914 1559.74707031 C-328.22021036 1564.5694993 -329.13208968 1569.07089374 -329.0859375 1574.03125 C-329.11440934 1578.51435867 -329.14472861 1582.35108432 -332 1586 C-339.98249373 1591.62269933 -349.76736195 1594.15321015 -359 1597 C-361.30510684 1597.7552317 -363.60980865 1598.51170099 -365.9140625 1599.26953125 C-392.47469571 1607.75145015 -419.38999647 1612.43667454 -447.25 1612.3125 C-448.10339966 1612.31067719 -448.95679932 1612.30885437 -449.83605957 1612.30697632 C-462.75198315 1612.2606172 -475.34613265 1611.81593878 -488 1609 C-488.78600586 1608.82839355 -489.57201172 1608.65678711 -490.38183594 1608.47998047 C-534.48701766 1598.53364868 -573.17980995 1573.57494685 -601 1538 C-601.80179688 1536.99195313 -602.60359375 1535.98390625 -603.4296875 1534.9453125 C-611.36282083 1524.88994957 -618.43115245 1514.33490483 -625.00585938 1503.34741211 C-640.49666446 1477.49533565 -660.5712421 1453.80173237 -685 1436 C-685.54366211 1435.60087402 -686.08732422 1435.20174805 -686.64746094 1434.79052734 C-717.96814411 1411.96311051 -757.49522037 1395.97808418 -796.69628906 1401.61572266 C-805.02179669 1403.00448368 -815.81352292 1404.90341921 -821.4375 1411.75 C-822.93846008 1417.75384031 -822.4293879 1422.52249005 -819.453125 1427.8671875 C-808.75691592 1443.56646211 -792.37126092 1453.72957068 -776.625 1463.6875 C-770.7465889 1467.41785642 -765.28936915 1471.47258353 -760 1476 C-759.26136719 1476.62777344 -758.52273438 1477.25554687 -757.76171875 1477.90234375 C-744.59938755 1489.42767913 -732.28606248 1501.83061743 -722 1516 C-721.52256348 1516.64904297 -721.04512695 1517.29808594 -720.55322266 1517.96679688 C-713.22185893 1527.96432765 -706.52851256 1538.27708929 -700.21679688 1548.9453125 C-699.12879249 1550.78252054 -698.02705971 1552.61060598 -696.921875 1554.4375 C-687.89336664 1569.70522145 -680.75683685 1585.87453232 -674.21289062 1602.33068848 C-653.41616804 1654.62244767 -614.07669019 1693.29283994 -562.61132812 1715.90234375 C-555.21362792 1719.01192304 -547.63846157 1721.55640105 -540 1724 C-539.30551758 1724.23025879 -538.61103516 1724.46051758 -537.89550781 1724.69775391 C-524.5546658 1729.10909977 -510.84216656 1731.70008956 -497 1734 C-496.02562988 1734.16806152 -495.05125977 1734.33612305 -494.04736328 1734.50927734 C-446.89368261 1742.2889494 -397.93814126 1736.41738318 -351.28078175 1728.3884573 C-348.43278664 1727.90339358 -345.58311683 1727.42873389 -342.73332214 1726.95436096 C-341.65807376 1726.7753251 -340.58282537 1726.59628923 -339.47499371 1726.41182804 C-338.65824578 1726.27592479 -337.84149786 1726.14002153 -337 1726 C-336.73786908 1748.09785548 -336.47703044 1770.19572589 -336.21769714 1792.29361439 C-336.09723337 1802.55585758 -335.97635925 1812.81809563 -335.85449219 1823.08032227 C-335.74817644 1832.03308851 -335.64265803 1840.98586376 -335.53806591 1849.93865031 C-335.48274576 1854.67158393 -335.42704755 1859.40451236 -335.37039185 1864.13743019 C-335.31688634 1868.60824433 -335.26446104 1873.07906993 -335.21280289 1877.54990578 C-335.1938413 1879.17545014 -335.17451217 1880.80099028 -335.15475082 1882.42652512 C-335.10098951 1886.85858694 -335.05423283 1891.29061179 -335.01887131 1895.72286057 C-335.00571849 1897.30996883 -334.99071671 1898.89706238 -334.97429276 1900.48414016 C-334.949451 1903.02084862 -334.93295372 1905.55749879 -334.91821289 1908.09428406 C-334.90510779 1909.24376013 -334.90510779 1909.24376013 -334.89173794 1910.41645795 C-334.83323022 1926.64348831 -339.19670462 1940.89566719 -350.57421875 1952.80859375 C-363.18436817 1964.20037124 -378.0218731 1965.65857222 -394.3046875 1965.03515625 C-411.46430393 1964.0142562 -427.5833281 1956.57621941 -443.29083252 1950.11157227 C-446.0000291 1948.99998806 -448.71527351 1947.9047373 -451.43310547 1946.81445312 C-463.35392687 1942.02716394 -475.20163232 1937.08129339 -487 1932 C-487.69903442 1931.69904419 -488.39806885 1931.39808838 -489.11828613 1931.0880127 C-502.18784396 1925.45064167 -515.14251466 1919.63776702 -527.79833984 1913.12060547 C-530.43452264 1911.77883578 -533.08560648 1910.46901627 -535.73828125 1909.16015625 C-546.23382849 1903.97389772 -556.6209291 1898.69987671 -566.7578125 1892.83984375 C-569.79352706 1891.11716717 -572.8635831 1889.53007572 -576 1888 C-576 1887.34 -576 1886.68 -576 1886 C-576.80695312 1885.77699219 -577.61390625 1885.55398438 -578.4453125 1885.32421875 C-582.94440639 1883.64818267 -586.79329286 1881.3179579 -590.875 1878.8125 C-591.74286133 1878.28495117 -592.61072266 1877.75740234 -593.50488281 1877.21386719 C-596.34165106 1875.48403228 -599.17142299 1873.74319281 -602 1872 C-602.95358398 1871.41460449 -603.90716797 1870.82920898 -604.88964844 1870.22607422 C-638.82935799 1849.35627962 -671.86037291 1826.87980449 -703 1802 C-703.83144531 1801.34 -704.66289063 1800.68 -705.51953125 1800 C-708.02052389 1798.00916009 -710.51148079 1796.00641292 -713 1794 C-713.57975586 1793.53368164 -714.15951172 1793.06736328 -714.75683594 1792.58691406 C-727.03968876 1782.69949826 -739.10282993 1772.60169329 -750.78125 1762.00390625 C-752.79308393 1760.18688018 -754.82660434 1758.40055608 -756.875 1756.625 C-762.34348044 1751.85231031 -767.67676661 1746.93322597 -773 1742 C-773.6202002 1741.42636719 -774.24040039 1740.85273437 -774.87939453 1740.26171875 C-783.61708893 1732.16347358 -792.18796598 1723.91133035 -800.625 1715.5 C-801.45386719 1714.6757251 -802.28273438 1713.8514502 -803.13671875 1713.00219727 C-807.35727354 1708.77091953 -811.41445641 1704.46485634 -815.31103516 1699.93408203 C-818.23091436 1696.5904447 -821.31531057 1693.40265259 -824.375 1690.1875 C-829.45735538 1684.810985 -834.28394154 1679.3612441 -838.89453125 1673.57421875 C-841.17200846 1670.78969652 -843.56312008 1668.14586197 -846 1665.5 C-850.89379479 1660.17019892 -855.46020517 1654.63164422 -860 1649 C-861.00934094 1647.76994984 -862.01982598 1646.5408379 -863.03125 1645.3125 C-870.10277812 1636.70539744 -876.89771271 1627.93513275 -883.52490234 1618.98242188 C-884.98046436 1617.02625445 -886.45023189 1615.08174836 -887.92578125 1613.140625 C-918.93522051 1572.29804462 -946.43361892 1528.43357193 -970.75 1483.3125 C-971.08555908 1482.6944751 -971.42111816 1482.0764502 -971.7668457 1481.43969727 C-974 1477.24146357 -974 1477.24146357 -974 1475 C-974.66 1474.67 -975.32 1474.34 -976 1474 C-977.28424619 1471.84114922 -978.47315295 1469.69149168 -979.62890625 1467.46484375 C-980.15817467 1466.4570713 -980.15817467 1466.4570713 -980.69813538 1465.42893982 C-984.6254024 1457.89359604 -988.31707609 1450.2490544 -991.9375 1442.5625 C-992.47667053 1441.41939865 -992.47667053 1441.41939865 -993.0267334 1440.25320435 C-1012.30662231 1399.2694794 -1028.46009612 1357.23496749 -1042.31439209 1314.13244629 C-1042.7611249 1312.74297321 -1043.20902461 1311.3538746 -1043.65826416 1309.96520996 C-1065.89970888 1241.20583549 -1079.03478016 1169.58925592 -1085.74285889 1097.71765137 C-1085.98572521 1095.15086621 -1086.24112928 1092.58567144 -1086.50048828 1090.02050781 C-1092.17387126 1032.95301326 -1091.701504 973.04082027 -1086 916 C-1085.82096708 914.14537611 -1085.64226621 912.29072013 -1085.46386719 910.43603516 C-1077.33456627 826.97174686 -1059.8694852 745.14597005 -1032 666 C-1031.76923767 665.34249756 -1031.53847534 664.68499512 -1031.30072021 664.00756836 C-1024.52612893 644.7285608 -1017.02307421 625.79181067 -1009 607 C-1008.56252441 605.97197266 -1008.12504883 604.94394531 -1007.67431641 603.88476562 C-1000.42184119 586.91712808 -992.54171359 570.24702402 -984.625 553.58203125 C-984.30355515 552.9049411 -983.98211029 552.22785095 -983.65092468 551.53024292 C-981.81014043 547.66465373 -979.9272905 543.82317384 -978 540 C-977.34 540 -976.68 540 -976 540 C-975.72559082 539.11981201 -975.45118164 538.23962402 -975.16845703 537.33276367 C-974.0883669 534.25204691 -972.84249099 531.54890816 -971.3046875 528.67578125 C-970.76207275 527.66112793 -970.21945801 526.64647461 -969.66040039 525.60107422 C-969.07121826 524.51584473 -968.48203613 523.43061523 -967.875 522.3125 C-967.25681396 521.17055176 -966.63862793 520.02860352 -966.00170898 518.85205078 C-939.85888568 470.82345086 -909.4080842 424.455549 -875.32666016 381.67382812 C-873.96165981 379.95162673 -872.61004984 378.21965176 -871.26171875 376.484375 C-866.29788962 370.10293596 -861.23757707 363.83149817 -855.984375 357.68554688 C-853.10088109 354.311859 -850.28362156 350.89473817 -847.5 347.4375 C-843.37309794 342.36392507 -838.99897442 337.56258858 -834.5546875 332.76953125 C-832.49886278 330.54081607 -830.48383043 328.29232081 -828.5 326 C-823.77717149 320.56596908 -818.89429162 315.27915432 -814 310 C-813.12359863 309.05374756 -813.12359863 309.05374756 -812.22949219 308.08837891 C-804.4563985 299.71406271 -796.565711 291.4683419 -788.5 283.375 C-787.77095459 282.6413623 -787.04190918 281.90772461 -786.29077148 281.15185547 C-782.25547735 277.12809997 -778.1281891 273.2780758 -773.79296875 269.57861328 C-771.94859467 267.95474035 -770.22003368 266.25434149 -768.5 264.5 C-765.53264677 261.48586418 -762.42654708 258.70082667 -759.22265625 255.94140625 C-756.67023117 253.71195939 -754.18112486 251.41998618 -751.6875 249.125 C-747.22962261 245.05902392 -742.64717834 241.20674038 -737.953125 237.41796875 C-734.56640523 234.64497995 -731.25074666 231.7974207 -727.9375 228.9375 C-722.38853113 224.16151073 -716.76676548 219.51243482 -711 215 C-710.38205566 214.51337891 -709.76411133 214.02675781 -709.12744141 213.52539062 C-698.34439651 205.03688032 -687.41375627 196.77420281 -676.32177734 188.69384766 C-674.09127349 187.06658838 -671.86745137 185.43056524 -669.64453125 183.79296875 C-635.42604079 158.69786143 -599.04692173 136.7043111 -561.8984375 116.26171875 C-557.49791419 113.8387502 -553.14417004 111.35591401 -548.8125 108.8125 C-473.76046915 65.91250195 -386.5605262 37.44581315 -296 18 C-295.28255615 17.84915955 -294.5651123 17.69831909 -293.82592773 17.54290771 C-255.46597478 9.51445243 -216.82427554 3.92665906 -177.80853271 0.26428223 C-175.99191671 0.09333911 -174.17553109 -0.08007809 -172.35943604 -0.25646973 C-115.66449922 -5.75768305 -56.68159418 -5.47292122 0 0 Z " fill="#FEFEFE" transform="translate(1089,19)"/>
<path d="" fill="#FFFFFF" transform="translate(0,0)"/>
<path d="" fill="#FFFFFF" transform="translate(0,0)"/>
<path d="" fill="#FFFFFF" transform="translate(0,0)"/>
<path d="" fill="#FFFFFF" transform="translate(0,0)"/>
<path d="" fill="#FFFFFF" transform="translate(0,0)"/>
<path d="" fill="#FFFFFF" transform="translate(0,0)"/>
<path d="" fill="#FFFFFF" transform="translate(0,0)"/>
<path d="" fill="#FFFFFF" transform="translate(0,0)"/>
<path d="" fill="#FFFFFF" transform="translate(0,0)"/>
<path d="" fill="#FFFFFF" transform="translate(0,0)"/>
<path d="" fill="#FFFFFF" transform="translate(0,0)"/>
<path d="" fill="#FFFFFF" transform="translate(0,0)"/>
<path d="" fill="#FFFFFF" transform="translate(0,0)"/>
<path d="" fill="#FFFFFF" transform="translate(0,0)"/>
<path d="" fill="#FFFFFF" transform="translate(0,0)"/>
<path d="" fill="#FFFFFF" transform="translate(0,0)"/>
<path d="" fill="#FFFFFF" transform="translate(0,0)"/>
<path d="" fill="#FFFFFF" transform="translate(0,0)"/>
<path d="" fill="#FFFFFF" transform="translate(0,0)"/>
<path d="" fill="#FFFFFF" transform="translate(0,0)"/>
<path d="" fill="#FFFFFF" transform="translate(0,0)"/>
<path d="" fill="#FFFFFF" transform="translate(0,0)"/>
<path d="" fill="#FFFFFF" transform="translate(0,0)"/>
<path d="" fill="#FFFFFF" transform="translate(0,0)"/>
<path d="" fill="#FFFFFF" transform="translate(0,0)"/>
<path d="" fill="#FFFFFF" transform="translate(0,0)"/>
<path d="" fill="#FFFFFF" transform="translate(0,0)"/>
<path d="" fill="#FFFFFF" transform="translate(0,0)"/>
<path d="" fill="#FFFFFF" transform="translate(0,0)"/>
<path d="" fill="#FFFFFF" transform="translate(0,0)"/>
<path d="" fill="#FFFFFF" transform="translate(0,0)"/>
<path d="" fill="#FFFFFF" transform="translate(0,0)"/>
<path d="" fill="#FFFFFF" transform="translate(0,0)"/>
<path d="" fill="#FFFFFF" transform="translate(0,0)"/>
<path d="" fill="#FFFFFF" transform="translate(0,0)"/>
<path d="" fill="#FFFFFF" transform="translate(0,0)"/>
<path d="" fill="#FFFFFF" transform="translate(0,0)"/>
<path d="" fill="#FFFFFF" transform="translate(0,0)"/>
<path d="" fill="#FFFFFF" transform="translate(0,0)"/>
<path d="" fill="#FFFFFF" transform="translate(0,0)"/>
<path d="" fill="#FFFFFF" transform="translate(0,0)"/>
</svg>
