<?xml version="1.0" encoding="UTF-8"?>
<svg version="1.1" xmlns="http://www.w3.org/2000/svg" width="1024" height="1024">
<path d="M0 0 C1.51427582 0.09828094 1.51427582 0.09828094 3.05914307 0.19854736 C31.50846411 2.06704903 59.81481411 4.66709353 88 9 C88.71724243 9.1093689 89.43448486 9.21873779 90.17346191 9.3314209 C136.9673413 16.50509185 182.97992867 28.75786127 225 51 C225.97114746 51.50950195 225.97114746 51.50950195 226.96191406 52.02929688 C255.85968923 67.31054283 283.40247832 89.74211063 303 116 C303.44762695 116.59828613 303.89525391 117.19657227 304.35644531 117.81298828 C315.99211141 133.48892403 325.76304307 150.30760138 334 168 C334.34740234 168.74314453 334.69480469 169.48628906 335.05273438 170.25195312 C364.29857231 233.62668631 372.60992796 305.56318294 376.84570312 374.49841309 C376.94769265 376.1519505 377.05182182 377.80535749 377.15820312 379.45861816 C381.06294939 440.18405105 381.06622996 502.28418599 377 563 C376.90171906 564.49690369 376.90171906 564.49690369 376.80145264 566.02404785 C372.18253249 635.88335318 364.35522654 710.31888794 333 774 C332.33754279 775.38754438 331.67606735 776.77555796 331.015625 778.1640625 C313.38170905 814.78936656 287.4187069 847.57186483 254 871 C253.3611084 871.45165527 252.7222168 871.90331055 252.06396484 872.36865234 C242.74663295 878.90734135 233.03177304 884.63312589 223 890 C222.39704102 890.32677734 221.79408203 890.65355469 221.17285156 890.99023438 C155.36860734 926.38738921 76.0744972 935.47630551 2.58807373 939.84570312 C0.87558735 939.94779886 -0.83677875 940.05193426 -2.54901123 940.15820312 C-63.29279727 943.92372804 -125.26715533 943.98378308 -186 940 C-187.00951721 939.93447937 -188.01903442 939.86895874 -189.05914307 939.80145264 C-217.50846411 937.93295097 -245.81481411 935.33290647 -274 931 C-275.07586365 930.83594666 -275.07586365 930.83594666 -276.17346191 930.6685791 C-322.9673413 923.49490815 -368.97992867 911.24213873 -411 889 C-411.64743164 888.66033203 -412.29486328 888.32066406 -412.96191406 887.97070312 C-441.85968923 872.68945717 -469.40247832 850.25788937 -489 824 C-489.44762695 823.40171387 -489.89525391 822.80342773 -490.35644531 822.18701172 C-501.99211141 806.51107597 -511.76304307 789.69239862 -520 772 C-520.52110352 770.8852832 -520.52110352 770.8852832 -521.05273438 769.74804688 C-550.29857231 706.37331369 -558.60992796 634.43681706 -562.84570312 565.50158691 C-562.94769265 563.8480495 -563.05182182 562.19464251 -563.15820312 560.54138184 C-567.06294939 499.81594895 -567.06622996 437.71581401 -563 377 C-562.93447937 376.00206421 -562.86895874 375.00412842 -562.80145264 373.97595215 C-560.91967252 345.51478641 -558.33488918 317.19808329 -554 289 C-553.83594666 287.92413635 -553.83594666 287.92413635 -553.6685791 286.82653809 C-547.33776283 245.53060258 -537.53730759 203.64847179 -519 166 C-518.33754279 164.61245562 -517.67606735 163.22444204 -517.015625 161.8359375 C-499.38170905 125.21063344 -473.4187069 92.42813517 -440 69 C-439.3611084 68.54834473 -438.7222168 68.09668945 -438.06396484 67.63134766 C-428.74663295 61.09265865 -419.03177304 55.36687411 -409 50 C-408.39704102 49.67322266 -407.79408203 49.34644531 -407.17285156 49.00976562 C-341.36860734 13.61261079 -262.0744972 4.52369449 -188.58807373 0.15429688 C-186.87558735 0.05220114 -185.16322125 -0.05193426 -183.45098877 -0.15820312 C-122.70720273 -3.92372804 -60.73284467 -3.98378308 0 0 Z " fill="#20282F" transform="translate(605,50)"/>
<path d="M0 0 C1.51427582 0.09828094 1.51427582 0.09828094 3.05914307 0.19854736 C31.50846411 2.06704903 59.81481411 4.66709353 88 9 C88.71724243 9.1093689 89.43448486 9.21873779 90.17346191 9.3314209 C136.9673413 16.50509185 182.97992867 28.75786127 225 51 C225.97114746 51.50950195 225.97114746 51.50950195 226.96191406 52.02929688 C255.85968923 67.31054283 283.40247832 89.74211063 303 116 C303.44762695 116.59828613 303.89525391 117.19657227 304.35644531 117.81298828 C315.99211141 133.48892403 325.76304307 150.30760138 334 168 C334.34740234 168.74314453 334.69480469 169.48628906 335.05273438 170.25195312 C364.29857231 233.62668631 372.60992796 305.56318294 376.84570312 374.49841309 C376.94769265 376.1519505 377.05182182 377.80535749 377.15820312 379.45861816 C381.06294939 440.18405105 381.06622996 502.28418599 377 563 C376.90171906 564.49690369 376.90171906 564.49690369 376.80145264 566.02404785 C372.18253249 635.88335318 364.35522654 710.31888794 333 774 C332.33754279 775.38754438 331.67606735 776.77555796 331.015625 778.1640625 C313.38170905 814.78936656 287.4187069 847.57186483 254 871 C253.3611084 871.45165527 252.7222168 871.90331055 252.06396484 872.36865234 C242.74663295 878.90734135 233.03177304 884.63312589 223 890 C222.39704102 890.32677734 221.79408203 890.65355469 221.17285156 890.99023438 C155.36860734 926.38738921 76.0744972 935.47630551 2.58807373 939.84570312 C0.87558735 939.94779886 -0.83677875 940.05193426 -2.54901123 940.15820312 C-63.29279727 943.92372804 -125.26715533 943.98378308 -186 940 C-187.00951721 939.93447937 -188.01903442 939.86895874 -189.05914307 939.80145264 C-217.50846411 937.93295097 -245.81481411 935.33290647 -274 931 C-275.07586365 930.83594666 -275.07586365 930.83594666 -276.17346191 930.6685791 C-322.9673413 923.49490815 -368.97992867 911.24213873 -411 889 C-411.64743164 888.66033203 -412.29486328 888.32066406 -412.96191406 887.97070312 C-441.85968923 872.68945717 -469.40247832 850.25788937 -489 824 C-489.44762695 823.40171387 -489.89525391 822.80342773 -490.35644531 822.18701172 C-501.99211141 806.51107597 -511.76304307 789.69239862 -520 772 C-520.52110352 770.8852832 -520.52110352 770.8852832 -521.05273438 769.74804688 C-550.29857231 706.37331369 -558.60992796 634.43681706 -562.84570312 565.50158691 C-562.94769265 563.8480495 -563.05182182 562.19464251 -563.15820312 560.54138184 C-567.06294939 499.81594895 -567.06622996 437.71581401 -563 377 C-562.93447937 376.00206421 -562.86895874 375.00412842 -562.80145264 373.97595215 C-560.91967252 345.51478641 -558.33488918 317.19808329 -554 289 C-553.83594666 287.92413635 -553.83594666 287.92413635 -553.6685791 286.82653809 C-547.33776283 245.53060258 -537.53730759 203.64847179 -519 166 C-518.33754279 164.61245562 -517.67606735 163.22444204 -517.015625 161.8359375 C-499.38170905 125.21063344 -473.4187069 92.42813517 -440 69 C-439.3611084 68.54834473 -438.7222168 68.09668945 -438.06396484 67.63134766 C-428.74663295 61.09265865 -419.03177304 55.36687411 -409 50 C-408.39704102 49.67322266 -407.79408203 49.34644531 -407.17285156 49.00976562 C-341.36860734 13.61261079 -262.0744972 4.52369449 -188.58807373 0.15429688 C-186.87558735 0.05220114 -185.16322125 -0.05193426 -183.45098877 -0.15820312 C-122.70720273 -3.92372804 -60.73284467 -3.98378308 0 0 Z M-190 16 C-191.13182709 16.07570221 -192.26365417 16.15140442 -193.42977905 16.22940063 C-199.58673494 16.65392819 -205.73134311 17.16507529 -211.875 17.75 C-212.76015289 17.83236908 -213.64530579 17.91473816 -214.55728149 17.99960327 C-271.38608465 23.33680474 -329.17693571 33.07893503 -381 58 C-381.69738281 58.32822754 -382.39476562 58.65645508 -383.11328125 58.99462891 C-415.25239853 74.13473411 -445.30187606 96.68983829 -467 125 C-467.41427246 125.53254395 -467.82854492 126.06508789 -468.25537109 126.61376953 C-519.51142197 192.785502 -532.81506019 280.39240331 -538.6875 361.6875 C-538.74852905 362.5312619 -538.80955811 363.3750238 -538.87243652 364.24435425 C-540.4658004 386.64603045 -541.1606176 409.01637503 -541.16796875 431.47265625 C-541.17119962 433.85599282 -541.17456489 436.2393292 -541.17805481 438.62266541 C-541.18398817 443.58837339 -541.18590094 448.55406413 -541.18530273 453.51977539 C-541.18522184 458.52144007 -541.1921155 463.52301244 -541.20581055 468.5246582 C-541.28547705 498.07917662 -541.02447094 527.50786875 -539 557 C-538.94624395 557.79009712 -538.89248791 558.58019424 -538.83710289 559.3942337 C-535.954078 601.60400517 -530.89452178 644.04500158 -520 685 C-519.68047363 686.20382324 -519.36094727 687.40764648 -519.03173828 688.64794922 C-504.10157325 744.09170221 -478.01050181 797.82665554 -432 834 C-430.55560547 835.16982422 -430.55560547 835.16982422 -429.08203125 836.36328125 C-366.72637786 885.91587273 -283.03289685 900.39340541 -205.65014648 906.77996826 C-203.89221644 906.92592261 -202.13455744 907.07518145 -200.37719727 907.22784424 C-166.6052326 910.16063993 -132.81505393 910.29005458 -98.9404335 910.31007385 C-95.49905069 910.31245737 -92.05768138 910.31777201 -88.61630249 910.32336426 C-49.19923185 910.37013115 -9.8167656 909.58227411 29.4375 905.75 C30.55337494 905.64395447 31.66924988 905.53790894 32.81893921 905.4286499 C53.36393989 903.46319427 73.71370336 900.80143886 94 897 C94.71015259 896.86764954 95.42030518 896.73529907 96.15197754 896.59893799 C164.53092483 883.77618667 234.69986578 857.3473308 279 801 C279.77988281 800.03707031 280.55976562 799.07414063 281.36328125 798.08203125 C299.72664098 774.9740714 312.82764505 748.59039452 323 721 C323.32307129 720.12730469 323.64614258 719.25460937 323.97900391 718.35546875 C342.81576914 666.67743122 349.21765574 610.73166446 353.125 556.1875 C353.23847778 554.61850952 353.23847778 554.61850952 353.35424805 553.01782227 C354.74299451 532.29019281 355.16099863 511.53821177 355.16796875 490.76953125 C355.17120127 488.43389366 355.17456663 486.09825624 355.17805481 483.76261902 C355.18397963 478.90302056 355.18590179 474.0434397 355.18530273 469.18383789 C355.18522178 464.2928495 355.19212688 459.4019554 355.20581055 454.51098633 C355.28631208 425.27772461 354.9978718 396.1716484 353 367 C352.9462855 366.21095905 352.89257099 365.42191811 352.83722878 364.60896683 C348.42413737 300.12727063 339.79327071 232.65171305 311 174 C310.54753906 173.07590332 310.09507812 172.15180664 309.62890625 171.19970703 C297.60513083 146.88740503 282.75488533 125.55211744 264 106 C262.82630859 104.76443359 262.82630859 104.76443359 261.62890625 103.50390625 C256.12857843 97.84670633 250.22684724 92.83955989 244 88 C243.46165527 87.57992676 242.92331055 87.15985352 242.36865234 86.72705078 C169.52756903 30.32383467 71.05537154 19.34303187 -61.77734375 13.83203125 C-64.20455442 13.82880117 -66.63176491 13.82543594 -69.05897522 13.82194519 C-74.12062021 13.81600676 -79.18224827 13.81409955 -84.24389648 13.81469727 C-89.34256572 13.8147781 -94.44114428 13.80789528 -99.53979492 13.79418945 C-129.75388684 13.71428026 -159.84756707 13.95661276 -190 16 Z " fill="#000000" transform="translate(605,50)"/>
<path d="M0 0 C0.51272461 0.40589355 1.02544922 0.81178711 1.55371094 1.22998047 C26.07919992 20.79881657 42.95424932 46.750031 50.75 77.1875 C50.96100342 78.00694092 51.17200684 78.82638184 51.3894043 79.6706543 C60.35234439 116.34993274 51.88917255 154.09605633 33 186 C30.54385492 189.86926965 27.89962457 193.45313781 25 197 C24.55398438 197.54994629 24.10796875 198.09989258 23.6484375 198.66650391 C0.04298632 227.59738274 -32.85587107 245.9355515 -69.98046875 250.6875 C-107.45001156 254.10529712 -143.88233792 244.10135874 -173.5625 220.8125 C-185.25321462 210.81200918 -195.80995091 200.06532993 -204 187 C-204.38881348 186.38044434 -204.77762695 185.76088867 -205.17822266 185.12255859 C-224.544449 153.69134081 -231.27643013 115.09120635 -223 79 C-222.8443457 78.31164062 -222.68869141 77.62328125 -222.52832031 76.9140625 C-216.71849131 52.32955655 -203.50723868 30.91676473 -186 13 C-185.20078125 12.13890625 -184.4015625 11.2778125 -183.578125 10.390625 C-136.35361983 -39.30313534 -52.74825781 -42.00324233 0 0 Z " fill="#FE7F00" transform="translate(360,399)"/>
<path d="M0 0 C26.9686974 24.58150019 45.62760622 56.93958472 48 94 C49.81198118 133.17600392 38.75985795 170.56762785 12.22216797 199.96972656 C-5.66893986 219.34131776 -26.25472412 231.45602852 -51 240 C-51.86753906 240.30679687 -52.73507812 240.61359375 -53.62890625 240.9296875 C-87.94068435 252.1927754 -125.78636888 246.02470291 -157.5390625 230.328125 C-175.54756295 221.13003064 -191.84167611 207.07260443 -204 191 C-204.71671875 190.08347656 -205.4334375 189.16695312 -206.171875 188.22265625 C-216.84817231 173.81722673 -224.79525812 156.42217944 -229 139 C-229.15936035 138.35450195 -229.3187207 137.70900391 -229.48291016 137.04394531 C-231.89622158 126.83894356 -232.27182724 116.7122334 -232.3125 106.25 C-232.31805908 105.05479736 -232.32361816 103.85959473 -232.3293457 102.62817383 C-232.06847837 70.20704641 -220.38193734 39.34020888 -199 15 C-198.31550781 14.18273437 -197.63101563 13.36546875 -196.92578125 12.5234375 C-174.89549242 -13.13105781 -141.73433292 -30.41644921 -108.08203125 -33.7578125 C-68.84225609 -36.4066665 -29.83270216 -26.57735514 0 0 Z " fill="#40BBF3" transform="translate(842,404)"/>
<path d="M0 0 C1.20030716 0.97594474 2.39712408 1.95620312 3.58984375 2.94140625 C4.12077637 3.37984863 4.65170898 3.81829102 5.19873047 4.27001953 C15.72310733 13.10206843 23.67847114 23.79650261 31.58984375 34.94140625 C31.08195313 35.92238281 30.5740625 36.90335937 30.05078125 37.9140625 C23.67363174 50.35409361 18.23414078 62.66903467 14.77734375 76.25390625 C14.57020752 77.06569336 14.36307129 77.87748047 14.1496582 78.71386719 C5.09941138 116.25732681 15.05068952 151.45055654 31.58984375 184.94140625 C19.81871341 201.79294738 6.18166054 217.04322529 -11.41015625 227.94140625 C-12.35109131 228.52825195 -12.35109131 228.52825195 -13.31103516 229.12695312 C-46.00962357 249.20660383 -84.17742625 254.46182546 -121.40234375 246.0625 C-154.14633557 237.92755816 -182.49870275 218.25076852 -202.59765625 191.19140625 C-203.02594727 190.63155029 -203.45423828 190.07169434 -203.89550781 189.49487305 C-205.015625 187.89453125 -205.015625 187.89453125 -206.41015625 184.94140625 C-205.33687863 181.61438089 -203.76716676 178.54360199 -202.203125 175.421875 C-196.96428752 164.81843575 -192.18754535 154.4649834 -189.41015625 142.94140625 C-189.2493457 142.29300781 -189.08853516 141.64460937 -188.92285156 140.9765625 C-186.51177807 130.77548456 -186.13831105 120.64902148 -186.09765625 110.19140625 C-186.09209717 108.99620361 -186.08653809 107.80100098 -186.08081055 106.56958008 C-186.17327026 95.07849681 -187.58451429 83.80490948 -190.53515625 72.69140625 C-190.74398438 71.9012915 -190.9528125 71.11117676 -191.16796875 70.29711914 C-193.64350272 61.43495367 -197.39214249 53.19625714 -201.41015625 44.94140625 C-201.94640625 43.83667969 -202.48265625 42.73195313 -203.03515625 41.59375 C-204.13894383 39.36422452 -205.25791854 37.1461688 -206.41015625 34.94140625 C-187.67871681 8.15920487 -162.46860201 -14.67563402 -130.41015625 -24.05859375 C-129.25386719 -24.4040625 -128.09757812 -24.74953125 -126.90625 -25.10546875 C-82.85201155 -37.57620702 -35.84069171 -28.41924938 0 0 Z " fill="#00DF54" transform="translate(599.41015625,400.05859375)"/>
<path d="M0 0 C0.66 0 1.32 0 2 0 C19.74225561 32.19948223 28.04385544 67.43955902 19 104 C18.80664062 104.78745605 18.61328125 105.57491211 18.4140625 106.38623047 C14.90817416 120.15279354 9.92611097 134.11083355 2 146 C-1 145 -1 145 -2.27099609 143.02905273 C-2.89095459 141.74430054 -2.89095459 141.74430054 -3.5234375 140.43359375 C-3.98492188 139.48121826 -4.44640625 138.52884277 -4.921875 137.54760742 C-5.40140625 136.52127197 -5.8809375 135.49493652 -6.375 134.4375 C-6.86742187 133.38989502 -7.35984375 132.34229004 -7.8671875 131.26293945 C-11.69325586 122.96655286 -14.85431636 114.89055415 -17 106 C-17.15936035 105.35450195 -17.3187207 104.70900391 -17.48291016 104.04394531 C-19.89622158 93.83894356 -20.27182724 83.7122334 -20.3125 73.25 C-20.31805908 72.05479736 -20.32361816 70.85959473 -20.3293457 69.62817383 C-20.23688786 58.13732388 -18.8262222 46.8631961 -15.875 35.75 C-15.56175781 34.56700317 -15.56175781 34.56700317 -15.2421875 33.36010742 C-12.0710895 22.02365728 -7.36277606 9.34590473 0 0 Z " fill="#FCFEFE" transform="translate(630,437)"/>
<path d="M0 0 C4.82961594 5.86775768 7.74317911 13.18740597 11 20 C11.40734375 20.84820312 11.8146875 21.69640625 12.234375 22.5703125 C14.69033452 28.1868101 16.16774854 34.07714414 17.6875 40 C17.90237061 40.83112305 18.11724121 41.66224609 18.33862305 42.51855469 C27.27014529 78.81603252 18.97302641 115.17021854 1 147 C0.34 147 -0.32 147 -1 147 C-18.95926693 115.92761753 -26.93480161 78.31557359 -18 43 C-17.58234375 41.14955078 -17.58234375 41.14955078 -17.15625 39.26171875 C-14.29395187 27.38071402 -8.89688521 8.89688521 0 0 Z " fill="#FDFEFD" transform="translate(393,436)"/>
</svg>
