<?xml version="1.0" encoding="UTF-8"?>
<svg version="1.1" xmlns="http://www.w3.org/2000/svg" width="2000" height="2000">
<path d="M0 0 C1.18954461 -0.00165078 2.37908921 -0.00330156 3.60468063 -0.00500236 C6.90459098 -0.00857106 10.20444521 -0.00767941 13.50435267 -0.00490058 C17.10852578 -0.00297406 20.7126935 -0.00686294 24.31686512 -0.00999737 C30.65736304 -0.01470801 36.99785315 -0.01569639 43.33835254 -0.01426902 C52.8304917 -0.01214788 62.32262279 -0.01576125 71.8147607 -0.0204838 C87.9920612 -0.02835824 104.16935949 -0.0314459 120.34666175 -0.03192973 C136.74421978 -0.03243197 153.14177535 -0.03507735 169.53933257 -0.04033732 C171.09205464 -0.04083252 171.09205464 -0.04083252 172.67614484 -0.04133773 C176.89206627 -0.04268771 181.1079877 -0.04405038 185.32390913 -0.04542983 C235.24949035 -0.06173653 285.1750711 -0.06811896 335.10065453 -0.0728777 C359.95867333 -0.07526049 384.81669186 -0.07896387 409.67471046 -0.0829148 C489.40197683 -0.09557959 569.12924318 -0.1063635 648.85651054 -0.10975526 C652.66743278 -0.1099175 656.47835502 -0.11008306 660.28927726 -0.11024964 C667.93220389 -0.11058344 675.57513052 -0.11091392 683.21805716 -0.1112442 C692.1661598 -0.1116311 701.11426245 -0.11202071 710.06236509 -0.11241527 C712.6233894 -0.11252769 715.1844137 -0.1126391 717.74543801 -0.11274952 C800.00048919 -0.11629912 882.25553163 -0.13137804 964.51057947 -0.15468726 C1023.61211337 -0.17142852 1082.71364562 -0.18690378 1141.81518191 -0.19142222 C1143.03059434 -0.19151571 1144.24600677 -0.1916092 1145.49824989 -0.19170551 C1172.17949202 -0.19372455 1198.86073413 -0.19488061 1225.54197633 -0.1952341 C1235.08909477 -0.19537027 1244.63621321 -0.19557927 1254.18333164 -0.19582735 C1256.55843584 -0.19588891 1258.93354004 -0.19594723 1261.30864424 -0.1960023 C1299.15639464 -0.19692215 1337.00413591 -0.20689082 1374.85188331 -0.22145979 C1412.97385006 -0.2360756 1451.09580562 -0.24111772 1489.21777467 -0.23304025 C1494.48678643 -0.23192488 1499.75579822 -0.23091422 1505.02481002 -0.22996593 C1506.57410236 -0.22968097 1506.57410236 -0.22968097 1508.15469354 -0.22939027 C1524.5027813 -0.22665763 1540.85084837 -0.23399533 1557.19893164 -0.24553929 C1573.27806204 -0.25668353 1589.3571632 -0.25710788 1605.43629406 -0.24616911 C1614.85997004 -0.24007832 1624.28355776 -0.24215237 1633.7072254 -0.25642108 C1639.97299764 -0.2650843 1646.23870519 -0.26278082 1652.50447347 -0.25172237 C1656.05177818 -0.24576398 1659.59891038 -0.24429489 1663.14620335 -0.25640723 C1682.05540067 -0.30828599 1700.53312669 0.34913555 1718.75477713 5.8776505 C1719.62054374 6.13369054 1720.48631034 6.38973058 1721.37831229 6.65352941 C1729.56936332 9.15748254 1737.32581116 12.34996604 1745.00477713 16.1276505 C1745.63577323 16.43428624 1746.26676932 16.74092198 1746.91688651 17.05684972 C1785.34641061 35.9484277 1815.66212035 70.4921045 1829.49159354 111.02120519 C1835.43156229 129.36176129 1838.17160883 148.06345505 1838.13127697 167.31060207 C1838.13280351 168.49613127 1838.13433006 169.68166047 1838.13590287 170.90311479 C1838.13911926 174.18239713 1838.13789128 177.46164234 1838.134757 180.74092361 C1838.13244476 184.32614902 1838.13596616 187.91136968 1838.13872382 191.49659413 C1838.14277131 197.80055868 1838.14310625 204.10451498 1838.14101788 210.40848036 C1838.13790863 219.84585108 1838.14055736 229.28321423 1838.14431658 238.7205844 C1838.15055191 254.80524572 1838.15202246 270.88990435 1838.15089911 286.9745667 C1838.14977495 303.27614101 1838.15080773 319.57771304 1838.15447158 335.879287 C1838.15470123 336.90869447 1838.15493088 337.93810194 1838.15516749 338.99870357 C1838.15610913 343.19129232 1838.15706481 347.38388107 1838.15803869 351.57646981 C1838.16818536 395.32269299 1838.17124475 439.0689149 1838.1718308 482.81513913 C1838.17189554 487.52453054 1838.17196348 492.23392195 1838.1720342 496.94331336 C1838.17205121 498.11194356 1838.17206821 499.28057375 1838.17208573 500.48461699 C1838.17249411 526.37587345 1838.17468376 552.26712967 1838.17719005 578.158386 C1838.1782184 588.81789816 1838.17920843 599.47741032 1838.1802063 610.13692248 C1838.18037218 611.9035735 1838.18037218 611.9035735 1838.18054142 613.70591445 C1838.18686598 681.20267709 1838.19099048 748.69943957 1838.19053286 816.19620252 C1838.19051708 818.72244388 1838.19050135 821.24868524 1838.19048565 823.77492661 C1838.19041227 835.18083082 1838.1903241 846.58673503 1838.19023177 857.99263925 C1838.19019065 863.07887701 1838.1901505 868.16511478 1838.19011046 873.25135254 C1838.19009006 875.7971068 1838.19006904 878.34286106 1838.1900474 880.88861533 C1838.18936711 961.39358856 1838.19668507 1041.8985574 1838.21058768 1122.40352941 C1838.21408866 1142.68749864 1838.2175581 1162.97146787 1838.22085208 1183.25543714 C1838.22115639 1185.12884706 1838.22115639 1185.12884706 1838.22146685 1187.04010365 C1838.22768113 1225.5291877 1838.23144727 1264.0182714 1838.23271006 1302.50735593 C1838.23275001 1303.71563539 1838.23278996 1304.92391485 1838.23283113 1306.16880884 C1838.23368437 1332.69256948 1838.23394561 1359.2163301 1838.23366075 1385.74009075 C1838.23356426 1395.23061251 1838.23351222 1404.72113427 1838.23348202 1414.21165604 C1838.23347411 1416.57268424 1838.2334639 1418.93371244 1838.2334514 1421.29474064 C1838.23327503 1458.92493033 1838.23897485 1496.55511626 1838.24760521 1534.18530488 C1838.25625274 1572.08292966 1838.25844847 1609.98054922 1838.25184389 1647.87817457 C1838.25093159 1653.11465225 1838.25008831 1658.35112993 1838.24928588 1663.58760762 C1838.24904575 1665.12734834 1838.24904575 1665.12734834 1838.24880076 1666.69819494 C1838.24644751 1682.95352655 1838.25080592 1699.20884915 1838.25795706 1715.46417906 C1838.26484801 1731.44716248 1838.26460365 1747.43013257 1838.25676493 1763.41311569 C1838.25238254 1772.78356668 1838.25345752 1782.15397846 1838.26263171 1791.5244262 C1838.26818017 1797.75111363 1838.26644779 1803.97777186 1838.25884893 1810.20445705 C1838.25474614 1813.73195498 1838.25367444 1817.25937585 1838.26159962 1820.78686901 C1838.34832705 1868.98390766 1826.76277212 1913.2726019 1792.47206229 1948.60909581 C1791.08487476 1950.04475412 1789.72174532 1951.50354577 1788.36024588 1952.963588 C1776.68173802 1965.18487509 1762.99183327 1974.43791727 1748.00477713 1982.1276505 C1747.39311698 1982.44572667 1746.78145682 1982.76380284 1746.15126151 1983.09151769 C1732.40027474 1990.1590227 1717.93194553 1994.60983863 1702.75477713 1997.4401505 C1701.90520438 1997.59959142 1701.05563163 1997.75903234 1700.18031424 1997.9233048 C1683.9619896 2000.72073821 1667.47234466 2000.27349737 1651.07743941 2000.25763037 C1647.51727972 2000.25530842 1643.95712468 2000.25884408 1640.39696595 2000.26159719 C1634.14339692 2000.26563602 1627.88983621 2000.26598351 1621.63626634 2000.26389124 C1612.27432781 2000.26077623 1602.91239688 2000.26343513 1593.55045889 2000.26718995 C1577.59258378 2000.27341892 1561.63471139 2000.27489677 1545.67683524 2000.27377248 C1529.50755398 2000.27264765 1513.33827503 2000.27368343 1497.16899413 2000.27734494 C1495.63644332 2000.27768942 1495.63644332 2000.27768942 1494.07293188 2000.27804086 C1489.91161331 2000.27898251 1485.75029475 2000.2799382 1481.58897619 2000.28091205 C1438.18748364 2000.29105419 1394.78599237 2000.29411795 1351.38449877 2000.29470416 C1346.71344767 2000.29476891 1342.04239656 2000.29483685 1337.37134546 2000.29490757 C1335.6326361 2000.29493308 1335.6326361 2000.29493308 1333.8588013 2000.2949591 C1308.16877977 2000.29536761 1282.47875848 2000.2975577 1256.78873707 2000.30006341 C1246.20945749 2000.30109177 1235.6301779 2000.30208181 1225.05089831 2000.30307966 C1223.29750384 2000.30324555 1223.29750384 2000.30324555 1221.50868727 2000.30341478 C1154.52598408 2000.3097386 1087.54328107 2000.31386393 1020.56057757 2000.31340623 C1018.0540175 2000.31339045 1015.54745743 2000.31337471 1013.04089736 2000.31335902 C1001.72405467 2000.31328564 990.40721199 2000.31319747 979.09036931 2000.31310514 C974.04392877 2000.31306401 968.99748823 2000.31302387 963.95104769 2000.31298382 C961.42521388 2000.31296343 958.89938007 2000.31294241 956.37354626 2000.31292076 C876.50216755 2000.3122405 796.63079327 2000.3195582 716.75941581 2000.33346105 C696.63513775 2000.33696208 676.51085969 2000.34043155 656.3865816 2000.34372544 C655.14744073 2000.34392832 653.90829986 2000.34413119 652.63160926 2000.34434021 C614.43862881 2000.35055543 576.24564873 2000.35432081 538.0526678 2000.35558343 C536.25393964 2000.35564336 536.25393964 2000.35564336 534.41887354 2000.35570449 C508.09426417 2000.35655778 481.76965482 2000.35681896 455.44504544 2000.35653412 C446.02557147 2000.35643763 436.6060975 2000.35638559 427.18662353 2000.35635539 C424.84331145 2000.35634747 422.49999936 2000.35633727 420.15668728 2000.35632476 C382.82447991 2000.35614847 345.49227633 2000.36184524 308.16007005 2000.37047858 C270.55827096 2000.37913006 232.95647713 2000.38131843 195.35467746 2000.37471726 C190.15657417 2000.37380499 184.95847088 2000.3729617 179.76036757 2000.37215924 C178.7414186 2000.37199916 177.72246963 2000.37183907 176.67264342 2000.37167413 C160.55123474 2000.36932291 144.42983516 2000.37367457 128.30842819 2000.38083043 C112.44861721 2000.38772946 96.58881964 2000.38746764 80.72900895 2000.37963829 C71.43652562 2000.37526359 62.14408184 2000.3763125 52.85160181 2000.38550508 C46.67021604 2000.39106925 40.48885963 2000.38930124 34.3074761 2000.3817223 C30.80984585 2000.37763456 27.31229312 2000.37650683 23.81466778 2000.38447298 C-26.56129142 2000.4762613 -72.4593336 1991.24602129 -109.99522287 1955.1276505 C-110.52470529 1954.62926671 -111.05418771 1954.13088292 -111.59971505 1953.61739659 C-141.7482498 1925.16078469 -160.70670359 1885.01562768 -162.0876602 1843.3378583 C-162.12356644 1840.24330088 -162.12899924 1837.15017594 -162.12287337 1834.05541468 C-162.12452414 1832.86970144 -162.12617492 1831.6839882 -162.12787573 1830.46234425 C-162.13144035 1827.17787176 -162.13055519 1823.89343571 -162.12777394 1820.6089636 C-162.1258454 1817.01982549 -162.12973762 1813.43069275 -162.13287073 1809.84155613 C-162.13757883 1803.52911305 -162.13857043 1797.2166778 -162.13714239 1790.90423325 C-162.13502026 1781.4540792 -162.13863602 1772.00393326 -162.14335716 1762.55378047 C-162.15122959 1746.4475551 -162.15431916 1730.34133194 -162.1548031 1714.2351048 C-162.15530541 1697.91053018 -162.15795157 1681.58595805 -162.16321069 1665.26138425 C-162.16354082 1664.23067805 -162.16387096 1663.19997186 -162.16421109 1662.13803215 C-162.16556109 1657.94016942 -162.16692375 1653.7423067 -162.1683032 1649.54444398 C-162.18460801 1599.83814953 -162.1909921 1550.13185555 -162.19575107 1500.42555887 C-162.19813407 1475.67555885 -162.2018375 1450.92555909 -162.20578817 1426.17555928 C-162.21845285 1346.79003324 -162.22923672 1267.40450722 -162.23262863 1188.01898019 C-162.23279087 1184.22456111 -162.23295643 1180.43014203 -162.23312301 1176.63572295 C-162.23345681 1169.02592632 -162.23378729 1161.41612969 -162.23411757 1153.80633307 C-162.23450447 1144.8970664 -162.23489407 1135.98779974 -162.23528863 1127.07853307 C-162.23540105 1124.52862643 -162.23551247 1121.9787198 -162.23562289 1119.42881316 C-162.23917235 1037.53386423 -162.25425079 955.63892409 -162.27756063 873.74397851 C-162.29430279 814.89954251 -162.30977753 756.05510817 -162.31429559 697.21066976 C-162.31438908 696.00044305 -162.31448256 694.79021634 -162.31457888 693.5433161 C-162.31659796 666.9753905 -162.31775398 640.40746493 -162.31810747 613.83953926 C-162.31824364 604.33286384 -162.31845263 594.82618842 -162.31870072 585.31951301 C-162.31876228 582.95448406 -162.3188206 580.5894551 -162.31887567 578.22442615 C-162.31979537 540.54328774 -162.32976227 502.86215849 -162.34433315 465.1810231 C-162.3589517 427.22473584 -162.36398939 389.26845982 -162.35591361 351.31217025 C-162.35479826 346.06502335 -162.35378759 340.81787643 -162.35283929 335.57072949 C-162.35264932 334.54216271 -162.35245936 333.51359594 -162.35226363 332.45386047 C-162.34953195 316.17961142 -162.35686564 299.90538319 -162.36841266 283.63113867 C-162.37956217 267.62115278 -162.37997597 251.61119624 -162.36904247 235.60120989 C-162.36295598 226.22038455 -162.36501423 216.83964791 -162.37929445 207.45883097 C-162.38796754 201.21889745 -162.38564251 194.97902883 -162.37459573 188.73909927 C-162.36864616 185.2081295 -162.36714303 181.67733286 -162.3792806 178.14637498 C-162.4330704 158.6623234 -162.06840484 138.95262907 -156.18272287 120.1901505 C-155.9233796 119.32937901 -155.66403634 118.46860753 -155.39683419 117.58175206 C-142.3176113 75.13060249 -113.73178417 39.92245095 -74.55576974 18.81319737 C-51.22659029 6.656242 -26.34178451 -0.05179162 0 0 Z M155.00477713 313.1276505 C154.14110526 313.92558019 153.27743338 314.72350987 152.38758963 315.54561925 C121.32474346 345.30292551 101.74875752 389.88903726 100.70399588 432.88936925 C100.684731 435.53261002 100.67772523 438.17224557 100.69227713 440.8151505 C100.69409995 441.50942143 100.69592276 442.20369237 100.69780082 442.91900182 C100.91871 493.17188448 122.49853788 537.52260808 157.57508963 572.7057755 C183.19474496 596.99352214 215.60956439 611.6044205 250.00477713 618.1276505 C250.69571463 618.26042394 251.38665213 618.39319737 252.09852713 618.52999425 C296.08587639 626.55227721 343.79186757 614.44529203 380.32997245 589.30294347 C421.0534671 560.72526078 447.85359398 518.74651209 456.46180838 469.7057755 C456.64098807 468.52499425 456.82016776 467.344213 457.00477713 466.1276505 C457.28128104 464.41061925 457.28128104 464.41061925 457.56337088 462.6589005 C458.36899726 455.93860007 458.24920977 449.13718806 458.25477713 442.3776505 C458.25545188 441.6422202 458.25612662 440.9067899 458.25682181 440.14907384 C458.23951142 428.25020398 457.58002002 416.77200661 455.00477713 405.1276505 C454.83848807 404.35389073 454.67219901 403.58013097 454.50087088 402.78292394 C448.91040001 377.53263049 437.81217919 353.57975998 422.00477713 333.1276505 C421.33446463 332.23433019 420.66415213 331.34100987 419.97352713 330.42061925 C396.21068737 299.94020747 362.33102571 277.9499326 325.00477713 268.1276505 C324.2611492 267.92945714 323.51752127 267.73126378 322.75135916 267.52706456 C262.13748472 251.87540876 199.98611233 271.10380371 155.00477713 313.1276505 Z M1151.37977713 750.8776505 C1150.66923178 750.92055211 1149.95868644 750.96345372 1149.22660941 751.00765538 C1075.88578424 755.5712567 1004.08747713 781.43258839 947.00477713 828.1276505 C946.45676444 828.57124913 945.90875174 829.01484776 945.3441326 829.47188878 C930.63176787 841.44222623 916.37635465 854.90723136 905.00477713 870.1276505 C904.37249198 870.95329503 904.37249198 870.95329503 903.72743338 871.79561925 C895.90599082 882.01002441 888.76766639 892.60187199 883.00477713 904.1276505 C882.67477713 858.2576505 882.34477713 812.3876505 882.00477713 765.1276505 C789.93477713 765.1276505 697.86477713 765.1276505 603.00477713 765.1276505 C603.00477713 1075.3276505 603.00477713 1385.5276505 603.00477713 1705.1276505 C699.69477713 1705.1276505 796.38477713 1705.1276505 896.00477713 1705.1276505 C896.05376151 1670.36936925 896.10274588 1635.611088 896.15321463 1599.7995255 C896.18860025 1577.77868977 896.22446772 1555.75785641 896.26258963 1533.7370255 C896.28132815 1522.90235904 896.29997585 1512.06769243 896.31840283 1501.23302543 C896.32090215 1499.76361827 896.32340434 1498.2942111 896.32590944 1496.82480395 C896.36573307 1473.45162108 896.39926477 1450.07843447 896.42946404 1426.70523736 C896.46056791 1402.65798632 896.49813298 1378.61075365 896.54368325 1354.56352543 C896.55013247 1351.15723995 896.55650877 1347.75095433 896.56284064 1344.34466863 C896.56408895 1343.67434534 896.56533725 1343.00402205 896.56662338 1342.31338593 C896.58764761 1330.9172366 896.6007866 1319.52109012 896.61203964 1308.12492731 C896.62263653 1297.9589917 896.64051605 1287.79308459 896.66394417 1277.62717053 C896.67722207 1271.77472375 896.68746046 1265.92231666 896.68899077 1260.06985402 C896.71600586 1183.81122091 904.34106543 1102.91594206 960.51649588 1045.55343175 C975.33709933 1030.83199042 992.09098707 1019.89704113 1011.00477713 1011.1276505 C1012.11852713 1010.59526769 1013.23227713 1010.06288487 1014.37977713 1009.51436925 C1030.99892803 1001.92992185 1049.03420134 997.97109604 1067.00477713 995.1276505 C1067.73180838 995.00905675 1068.45883963 994.890463 1069.20790213 994.7682755 C1105.82366494 989.07249017 1146.37371744 991.65373619 1179.00477713 1010.1276505 C1179.99864432 1010.68194737 1180.99251151 1011.23624425 1182.01649588 1011.807338 C1212.56522355 1030.02326976 1228.09584535 1065.22912775 1236.62977713 1098.28780675 C1241.80976683 1119.2507774 1244.70245323 1140.46737692 1246.69227713 1161.9401505 C1246.81175711 1163.22478185 1246.93123709 1164.50941319 1247.05433768 1165.83297276 C1248.67900209 1184.51367238 1249.15417337 1203.20154119 1249.16299552 1221.94500279 C1249.16757627 1224.04701512 1249.17257842 1226.14902657 1249.17795908 1228.251037 C1249.19137763 1233.95912411 1249.19891051 1239.66720536 1249.20538574 1245.37530398 C1249.21346239 1251.5563044 1249.2271346 1257.7372929 1249.24009818 1263.91828465 C1249.26175893 1274.60473717 1249.27997468 1285.29119033 1249.29570311 1295.97765279 C1249.3121968 1307.17406096 1249.33070116 1318.37046289 1249.35183638 1329.5668633 C1249.35315399 1330.26545615 1249.3544716 1330.964049 1249.35582913 1331.68381133 C1249.36253208 1335.23223698 1249.36927043 1338.78066256 1249.37602239 1342.32908811 C1249.42366698 1367.40158461 1249.46688563 1392.47408696 1249.50746268 1417.54659581 C1249.54687002 1441.89002461 1249.58832245 1466.23344855 1249.63246268 1490.57686925 C1249.63524002 1492.11014509 1249.6380173 1493.64342093 1249.64079452 1495.17669678 C1249.66231003 1507.04949611 1249.68395398 1518.92229521 1249.70563084 1530.79509425 C1249.81169286 1588.90593651 1249.90751873 1647.01679155 1250.00477713 1705.1276505 C1346.69477713 1705.1276505 1443.38477713 1705.1276505 1543.00477713 1705.1276505 C1543.06223927 1607.89819516 1543.06223927 1607.89819516 1543.10110706 1510.6687367 C1543.10518871 1496.54290004 1543.10936414 1482.41706341 1543.11382912 1468.29122686 C1543.11436882 1466.58299891 1543.11490556 1464.87477096 1543.11543931 1463.16654301 C1543.12394418 1436.02551917 1543.1389299 1408.88450377 1543.15737158 1381.74348501 C1543.17632041 1353.80474965 1543.18856728 1325.86601893 1543.19260711 1297.92727724 C1543.19318326 1293.96393984 1543.19383453 1290.00060245 1543.19453162 1286.03726506 C1543.19466647 1285.2573685 1543.19480131 1284.47747194 1543.19494024 1283.67394215 C1543.19728628 1271.21542244 1543.20651467 1258.75691728 1543.2184412 1246.29840346 C1543.23033543 1233.71546915 1543.23468365 1221.13254899 1543.23177989 1208.54960927 C1543.23041032 1201.755447 1543.23230045 1194.96133173 1543.24318808 1188.16717458 C1543.28030274 1163.73561312 1543.23122533 1139.33724064 1542.09996146 1114.92751622 C1542.04002378 1113.62997154 1542.04002378 1113.62997154 1541.97887523 1112.30621383 C1537.61147638 1020.70167551 1522.50096362 916.4259956 1458.05946463 846.36593175 C1456.12375111 844.25725523 1454.24657737 842.10978722 1452.37977713 839.9401505 C1445.86621723 832.50457984 1438.72803225 826.29244545 1431.00477713 820.1276505 C1429.9532668 819.26265061 1428.90250233 818.39674335 1427.85243338 817.52999425 C1365.06447783 766.2494398 1278.22168597 752.86690807 1199.46766776 750.62496495 C1197.37314408 750.56496047 1195.27881973 750.49989214 1193.18446463 750.43429112 C1179.2144488 750.01031275 1165.33614712 750.0332204 1151.37977713 750.8776505 Z M133.00477713 765.1276505 C133.00477713 1075.3276505 133.00477713 1385.5276505 133.00477713 1705.1276505 C229.69477713 1705.1276505 326.38477713 1705.1276505 426.00477713 1705.1276505 C426.00477713 1394.9276505 426.00477713 1084.7276505 426.00477713 765.1276505 C329.31477713 765.1276505 232.62477713 765.1276505 133.00477713 765.1276505 Z " fill="#FFFFFF" transform="translate(161.9952228665352,-0.12765049934387207)"/>
</svg>
