<svg xmlns="http://www.w3.org/2000/svg" xmlns:xlink="http://www.w3.org/1999/xlink" width="2000" zoomAndPan="magnify" viewBox="0 0 1500 1499.999933" height="2000" preserveAspectRatio="xMidYMid meet" version="1.0"><defs><g/></defs><g fill="#16181b" fill-opacity="1"><g transform="translate(356.023596, 838.74574)"><g><path d="M 703.953125 -387.03125 C 703.203125 -385.101562 702.453125 -383.175781 701.703125 -381.25 C 694.210938 -361.789062 686.140625 -342.648438 677.484375 -323.828125 C 632.785156 -230.910156 584.773438 -141.039062 533.453125 -54.21875 C 516.773438 -26.195312 499.722656 1.335938 482.296875 28.390625 C 464.867188 55.441406 447.332031 82.390625 429.6875 109.234375 C 425.519531 115.535156 421.296875 121.84375 417.015625 128.15625 C 416.804688 128.6875 416.59375 129.0625 416.375 129.28125 C 415.414062 131.195312 414.296875 132.796875 413.015625 134.078125 C 411.734375 135.367188 410.019531 136.015625 407.875 136.015625 C 406.914062 136.015625 405.898438 135.769531 404.828125 135.28125 C 403.765625 134.800781 402.910156 134.191406 402.265625 133.453125 C 401.734375 132.804688 401.359375 131.757812 401.140625 130.3125 C 400.929688 128.875 401.039062 127.726562 401.46875 126.875 C 404.351562 120.664062 407.5625 114.785156 411.09375 109.234375 C 419 96.285156 426.960938 83.34375 434.984375 70.40625 C 450.054688 46.351562 464.863281 22.242188 479.40625 -1.921875 C 511.695312 -55.816406 542.539062 -110.832031 571.9375 -166.96875 C 601.34375 -223.101562 630.054688 -279.828125 658.078125 -337.140625 C 669.304688 -359.273438 678.554688 -382.960938 685.828125 -408.203125 C 687.316406 -412.585938 688.460938 -417.128906 689.265625 -421.828125 C 690.066406 -426.535156 690.46875 -431.398438 690.46875 -436.421875 C 689.726562 -447.222656 685.132812 -451.929688 676.6875 -450.546875 C 669.195312 -449.046875 662.140625 -446.691406 655.515625 -443.484375 C 639.796875 -435.890625 624.289062 -427.492188 609 -418.296875 C 526.882812 -368.472656 452.09375 -306.617188 384.625 -232.734375 C 383.65625 -231.554688 382.582031 -230.378906 381.40625 -229.203125 C 358.101562 -203.859375 334.984375 -178.300781 312.046875 -152.53125 C 289.109375 -126.757812 266.835938 -100.242188 245.234375 -72.984375 C 240.742188 -67.316406 236.039062 -62.019531 231.125 -57.09375 C 225.882812 -51.644531 219.628906 -49.507812 212.359375 -50.6875 C 209.253906 -51.113281 206.710938 -52.632812 204.734375 -55.25 C 202.765625 -57.875 201.992188 -60.953125 202.421875 -64.484375 C 203.910156 -74.097656 206.046875 -83.398438 208.828125 -92.390625 C 217.492188 -120.828125 226.691406 -148.894531 236.421875 -176.59375 C 237.804688 -180.875 239.085938 -184.988281 240.265625 -188.9375 C 242.835938 -199.3125 246.472656 -208.882812 251.171875 -217.65625 C 251.171875 -217.863281 251.066406 -217.96875 250.859375 -217.96875 C 249.679688 -218.613281 248.503906 -219.125 247.328125 -219.5 C 246.148438 -219.875 244.972656 -219.472656 243.796875 -218.296875 C 239.515625 -213.585938 235.398438 -208.664062 231.453125 -203.53125 C 198.941406 -159.476562 166.753906 -115.050781 134.890625 -70.25 C 103.023438 -25.445312 71.910156 20.101562 41.546875 66.40625 C 38.972656 70.894531 36.109375 74.554688 32.953125 77.390625 C 29.804688 80.222656 25.613281 81.160156 20.375 80.203125 C 18.019531 79.554688 16.195312 78.109375 14.90625 75.859375 C 13.625 73.617188 13.359375 71.429688 14.109375 69.296875 C 16.890625 62.984375 19.9375 56.992188 23.25 51.328125 C 32.664062 35.078125 41.972656 18.820312 51.171875 2.5625 C 69.660156 -29.625 88 -61.96875 106.1875 -94.46875 C 134.414062 -144.300781 159.59375 -196.75 181.71875 -251.8125 C 190.382812 -272.988281 197.441406 -295.234375 202.890625 -318.546875 C 205.890625 -330.941406 207.175781 -343.878906 206.75 -357.359375 C 205.351562 -378.953125 198.1875 -394.398438 185.25 -403.703125 C 172.3125 -413.003906 155.3125 -417.414062 134.25 -416.9375 C 113.1875 -416.457031 89.820312 -412.15625 64.15625 -404.03125 C 38.488281 -395.90625 12.1875 -385.15625 -14.75 -371.78125 C -41.695312 -358.414062 -67.679688 -343.660156 -92.703125 -327.515625 C -117.722656 -311.367188 -139.988281 -295.007812 -159.5 -278.4375 C -179.019531 -261.863281 -194.234375 -246.304688 -205.140625 -231.765625 C -216.578125 -215.722656 -226.304688 -198.082031 -234.328125 -178.84375 C -238.390625 -169.644531 -240.742188 -159.644531 -241.390625 -148.84375 C -241.609375 -146.707031 -242.675781 -145.101562 -244.59375 -144.03125 C -246.519531 -142.957031 -248.660156 -142.640625 -251.015625 -143.078125 C -254.753906 -144.242188 -257.109375 -147.179688 -258.078125 -151.890625 C -258.710938 -158.085938 -258.226562 -163.753906 -256.625 -168.890625 C -253.09375 -181.828125 -248.390625 -194.070312 -242.515625 -205.625 C -231.710938 -225.832031 -215.296875 -246.46875 -193.265625 -267.53125 C -171.242188 -288.59375 -145.582031 -308.773438 -116.28125 -328.078125 C -86.988281 -347.378906 -56.410156 -364.59375 -24.546875 -379.71875 C 7.316406 -394.851562 38.488281 -406.617188 68.96875 -415.015625 C 99.445312 -423.410156 126.898438 -427.179688 151.328125 -426.328125 C 175.765625 -425.472656 195.039062 -418.757812 209.15625 -406.1875 C 223.269531 -393.625 230.113281 -373.816406 229.6875 -346.765625 C 228.9375 -329.335938 226.207031 -312.765625 221.5 -297.046875 C 214.65625 -273.953125 206.769531 -251.628906 197.84375 -230.078125 C 188.914062 -208.535156 179.425781 -187.445312 169.375 -166.8125 C 166.269531 -160.394531 165.597656 -157.265625 167.359375 -157.421875 C 169.128906 -157.585938 171.78125 -160.019531 175.3125 -164.71875 C 188.03125 -181.613281 200.753906 -198.296875 213.484375 -214.765625 C 222.140625 -225.773438 230.960938 -236.578125 239.953125 -247.171875 C 241.128906 -248.660156 242.300781 -250.101562 243.46875 -251.5 C 248.601562 -257.800781 254.804688 -262.023438 262.078125 -264.171875 C 267.535156 -265.347656 272.132812 -264.117188 275.875 -260.484375 C 279.613281 -256.847656 280.894531 -251.394531 279.71875 -244.125 C 279.507812 -243.375 279.296875 -242.625 279.078125 -241.875 C 277.160156 -232.457031 274.914062 -223.3125 272.34375 -214.4375 C 265.5 -192.738281 258.441406 -171.195312 251.171875 -149.8125 C 247.640625 -138.789062 244.113281 -127.613281 240.59375 -116.28125 C 239.84375 -114.675781 238.769531 -111.738281 237.375 -107.46875 C 235.988281 -103.71875 234.65625 -100.023438 233.375 -96.390625 C 232.09375 -92.753906 231.078125 -89.976562 230.328125 -88.0625 C 231.285156 -88.800781 240 -98.582031 256.46875 -117.40625 C 278.8125 -143.070312 305.273438 -173.117188 335.859375 -207.546875 C 366.441406 -241.972656 390.445312 -268.28125 407.875 -286.46875 C 440.0625 -318.863281 473.984375 -348.347656 509.640625 -374.921875 C 545.296875 -401.492188 582.265625 -425.523438 620.546875 -447.015625 C 629.953125 -451.929688 639.628906 -456.367188 649.578125 -460.328125 C 651.710938 -461.078125 653.796875 -461.929688 655.828125 -462.890625 C 665.234375 -466.628906 675.234375 -468.019531 685.828125 -467.0625 C 706.140625 -465.132812 715.441406 -452.300781 713.734375 -428.5625 C 712.554688 -413.8125 709.296875 -399.96875 703.953125 -387.03125 Z M 250.046875 -218.9375 C 250.585938 -218.507812 250.960938 -218.1875 251.171875 -217.96875 C 251.171875 -217.96875 251.171875 -217.863281 251.171875 -217.65625 C 251.390625 -217.65625 251.5 -217.757812 251.5 -217.96875 C 251.070312 -218.1875 250.585938 -218.507812 250.046875 -218.9375 Z M 250.046875 -218.9375 "/></g></g></g><g fill="#16181b" fill-opacity="1"><g transform="translate(760.599232, 1035.504083)"><g><path d="M 635.140625 63.671875 C 635.347656 63.671875 635.722656 63.671875 636.265625 63.671875 C 637.867188 63.890625 639.441406 64.238281 640.984375 64.71875 C 642.535156 65.195312 643.898438 66.132812 645.078125 67.53125 C 645.503906 67.957031 645.851562 68.539062 646.125 69.28125 C 646.394531 70.03125 646.367188 70.726562 646.046875 71.375 C 645.828125 72.125 645.425781 72.789062 644.84375 73.375 C 644.257812 73.96875 643.75 74.265625 643.3125 74.265625 C 640.425781 74.691406 637.488281 74.691406 634.5 74.265625 C 562.75 59.398438 483.222656 49.800781 395.921875 45.46875 C 308.617188 41.132812 228.078125 42.710938 154.296875 50.203125 C 150.984375 50.421875 147.773438 50.796875 144.671875 51.328125 C 141.890625 51.535156 139.21875 51.75 136.65625 51.96875 C 128.414062 53.144531 121.359375 56.78125 115.484375 62.875 C 102.222656 77.3125 87.628906 90.035156 71.703125 101.046875 C 59.179688 109.492188 45.382812 114.195312 30.3125 115.15625 C 24.21875 115.582031 18.335938 114.625 12.671875 112.28125 C 7.328125 109.925781 3.878906 106.394531 2.328125 101.6875 C 0.773438 96.976562 1.441406 91.953125 4.328125 86.609375 C 9.035156 79.015625 16.785156 72.519531 27.578125 67.125 C 38.378906 61.726562 49.898438 57.316406 62.140625 53.890625 C 74.390625 50.472656 84.738281 47.960938 93.1875 46.359375 C 104.519531 44.210938 113.71875 38.703125 120.78125 29.828125 C 154.882812 -11.660156 187.679688 -58.628906 219.171875 -111.078125 C 250.660156 -163.523438 279.691406 -217.492188 306.265625 -272.984375 C 332.835938 -328.484375 355.695312 -381.628906 374.84375 -432.421875 C 375.476562 -435.085938 376.570312 -437.410156 378.125 -439.390625 C 379.675781 -441.367188 381.945312 -442.734375 384.9375 -443.484375 C 387.820312 -443.910156 390.304688 -443.347656 392.390625 -441.796875 C 394.484375 -440.242188 395.316406 -438.082031 394.890625 -435.3125 C 393.921875 -428.675781 392.265625 -422.203125 389.921875 -415.890625 C 371.628906 -367.671875 349.945312 -317.441406 324.875 -265.203125 C 299.800781 -212.972656 272.507812 -162.050781 243 -112.4375 C 213.488281 -62.820312 183.066406 -17.910156 151.734375 22.296875 C 145.210938 30.523438 143.234375 35.304688 145.796875 36.640625 C 148.359375 37.984375 153.382812 37.90625 160.875 36.40625 C 162.582031 36.195312 164.238281 35.984375 165.84375 35.765625 C 224.65625 29.140625 285.65625 27.132812 348.84375 29.75 C 412.039062 32.375 474.328125 37.910156 535.703125 46.359375 C 557.296875 49.453125 578.46875 52.976562 599.21875 56.9375 C 611.40625 59.289062 623.378906 61.535156 635.140625 63.671875 Z M 39.140625 99.921875 C 57.097656 92.648438 71.957031 81.15625 83.71875 65.4375 C 64.363281 66.832031 47.148438 72.820312 32.078125 83.40625 C 27.367188 86.9375 24.613281 90.359375 23.8125 93.671875 C 23.007812 96.984375 23.972656 99.382812 26.703125 100.875 C 29.429688 102.375 33.578125 102.054688 39.140625 99.921875 Z M 39.140625 99.921875 "/></g></g></g></svg>