<?xml version="1.0" encoding="UTF-8"?>
<svg version="1.1" xmlns="http://www.w3.org/2000/svg" width="310" height="310">
<path d="M0 0 C0.66 0 1.32 0 2 0 C2.37584229 0.75953979 2.37584229 0.75953979 2.75927734 1.53442383 C7.26093945 10.61839006 11.79296765 19.67831651 16.5625 28.625 C21.37470476 37.66733564 25.93615071 46.83080628 30.5 56 C37.05722639 69.19175486 37.05722639 69.19175486 43.875 82.25 C49.39881074 92.57028697 54.55465164 103.07750351 59.77218628 113.55462646 C64.59705217 123.23980691 69.44447755 132.90239402 74.54443359 142.4465332 C79.91062978 152.52035778 84.93009867 162.77486756 90 173 C91.11560303 172.99476318 92.23120605 172.98952637 93.38061523 172.98413086 C97.50479333 172.96608225 101.62896791 172.95456851 105.75317383 172.94506836 C107.54094021 172.94002782 109.32870245 172.93319546 111.11645508 172.92456055 C113.68051168 172.9124827 116.24451397 172.90676906 118.80859375 172.90234375 C119.6127623 172.89718246 120.41693085 172.89202118 121.24546814 172.88670349 C123.16401715 172.88650785 125.08245368 172.93798017 127 173 C127.33 173.33 127.66 173.66 128 174 C127.82922031 181.1928386 124.30608291 186.976859 121.0625 193.25 C120.53076172 194.29929688 119.99902344 195.34859375 119.45117188 196.4296875 C116.93375448 201.37598474 114.37545036 206.29956272 111.77711487 211.20375061 C105.86272297 222.36789059 100.1273054 233.61067949 94.4921875 244.91796875 C93.63226768 246.63968112 92.77216666 248.361303 91.91189575 250.08283997 C89.68428389 254.54182163 87.45907958 259.00200021 85.23443604 263.46246338 C82.9494575 268.042782 80.66211915 272.62192187 78.375 277.20117188 C73.91440235 286.13298539 69.45635619 295.06606962 65 304 C64.01 304 63.02 304 62 304 C55.84313998 292.30658526 49.75451551 280.58567453 43.875 268.75 C40.4363663 261.82865462 36.94934291 254.94427235 33.3125 248.125 C28.14597549 238.42889027 23.27619059 228.58699017 18.38119507 218.75213623 C13.33522533 208.61805805 8.21620422 198.53362672 2.8828125 188.546875 C2.5621582 187.94037109 2.24150391 187.33386719 1.91113281 186.70898438 C1.03876088 185.07270261 0.1410217 183.45002139 -0.7578125 181.828125 C-2.02796129 178.9363397 -2.27486655 177.11515428 -2 174 C10.33173224 172.80315944 22.62367928 172.89603763 35 173 C34.60321045 172.23671387 34.2064209 171.47342773 33.79760742 170.68701172 C31.92583872 167.08390423 30.05591051 163.47984986 28.1875 159.875 C27.6778772 158.89176758 27.6778772 158.89176758 27.15795898 157.88867188 C22.24483383 148.40317617 17.41080132 138.88284459 12.66748047 129.31103516 C9.63600968 123.21226606 6.46713175 117.21051207 3.14453125 111.265625 C2 109 2 109 2 107 C1.34 107 0.68 107 0 107 C-0.14598633 108.02432129 -0.14598633 108.02432129 -0.29492188 109.06933594 C-1.1475536 112.61330797 -2.63619832 115.66453225 -4.28125 118.890625 C-4.61081696 119.54824829 -4.94038391 120.20587158 -5.27993774 120.88342285 C-6.34724916 123.00872035 -7.42334356 125.12942349 -8.5 127.25 C-9.23584488 128.70979436 -9.97135847 130.16975576 -10.70654297 131.62988281 C-14.77815582 139.6998866 -18.88496667 147.75099287 -23.18066406 155.70458984 C-25.8275214 160.60632125 -28.22457985 165.6026183 -30.515625 170.6796875 C-32.45330816 173.70859224 -33.67978317 174.52289153 -37 176 C-40.65292437 176.42285732 -44.27976624 176.37254647 -47.953125 176.328125 C-49.00908875 176.32625183 -50.06505249 176.32437866 -51.15301514 176.32244873 C-53.37873505 176.31573893 -55.60444339 176.30184581 -57.83007812 176.28125 C-61.25141249 176.24998709 -64.6722867 176.2402673 -68.09375 176.234375 C-70.255214 176.2252093 -72.41667329 176.21483492 -74.578125 176.203125 C-76.12176727 176.19675018 -76.12176727 176.19675018 -77.69659424 176.19024658 C-78.64137634 176.18063904 -79.58615845 176.17103149 -80.55957031 176.16113281 C-81.39498352 176.15430481 -82.23039673 176.14747681 -83.09112549 176.14044189 C-85 176 -85 176 -86 175 C-85.64286103 169.08150169 -83.68870237 164.78091405 -80.93237305 159.59521484 C-80.29286807 158.36017904 -80.29286807 158.36017904 -79.6404438 157.10019302 C-78.70587506 155.29719547 -77.76679738 153.4965297 -76.82380104 151.69792557 C-74.18702691 146.66558013 -71.58703573 141.61422185 -68.98193359 136.56542969 C-68.42147874 135.48128344 -67.86102388 134.39713718 -67.28358555 133.28013802 C-60.79314353 120.70451746 -54.47221001 108.04498139 -48.15687418 95.38087177 C-46.88896593 92.83888366 -45.61993456 90.29745703 -44.35088527 87.75603843 C-40.49586873 80.03587736 -36.64419723 72.31404986 -32.79331207 64.59182739 C-28.21239563 55.40569256 -23.63083414 46.21988221 -19.04484767 37.03627717 C-17.51574168 33.97394026 -15.98748464 30.91118608 -14.46128273 27.84740067 C-12.78041412 24.47370919 -11.09712375 21.10123621 -9.41333008 17.72900391 C-8.92150238 16.74018219 -8.42967468 15.75136047 -7.92294312 14.73257446 C-5.42150599 9.72931709 -2.83289266 4.82376592 0 0 Z M38 175 C40.46748124 180.77387477 40.46748124 180.77387477 43.12890625 186.43481445 C43.51941162 187.22866043 43.90991699 188.02250641 44.31225586 188.84040833 C44.72483643 189.67295639 45.13741699 190.50550446 45.5625 191.36328125 C45.99506104 192.23647507 46.42762207 193.10966888 46.87329102 194.00932312 C47.78316114 195.84282099 48.69423274 197.67572307 49.60644531 199.50805664 C50.53905085 201.38486809 51.4680634 203.26346903 52.39355469 205.14379883 C53.73378868 207.86671231 55.08437895 210.58425339 56.4375 213.30078125 C56.85008057 214.14345047 57.26266113 214.98611969 57.68774414 215.85432434 C58.07824951 216.63240952 58.46875488 217.41049469 58.87109375 218.2121582 C59.38047485 219.23971977 59.38047485 219.23971977 59.90014648 220.28804016 C61.04263175 222.31745932 61.04263175 222.31745932 64 224 C64.25056152 223.49364014 64.50112305 222.98728027 64.75927734 222.46557617 C69.91624325 212.05926333 75.14965269 201.70265308 80.59912109 191.44604492 C83.13809159 186.66422918 85.59565983 181.85104756 88 177 C88.33 176.34 88.66 175.68 89 175 C72.17 175 55.34 175 38 175 Z " fill="#FEFEFE" transform="translate(134,3)"/>
</svg>
